<svg xmlns="http://www.w3.org/2000/svg" xmlns:xlink="http://www.w3.org/1999/xlink" width="50" zoomAndPan="magnify" viewBox="0 0 37.5 30.000001" height="40" preserveAspectRatio="xMidYMid meet" version="1.0"><defs><g/><clipPath id="7244ac9f78"><path d="M 0.847656 2.902344 L 36.410156 2.902344 L 36.410156 6 L 0.847656 6 Z M 0.847656 2.902344 " clip-rule="nonzero"/></clipPath><clipPath id="e5a310fef1"><path d="M 0.847656 13 L 36.410156 13 L 36.410156 17 L 0.847656 17 Z M 0.847656 13 " clip-rule="nonzero"/></clipPath><clipPath id="2e889878df"><path d="M 0.847656 23 L 36.410156 23 L 36.410156 26.128906 L 0.847656 26.128906 Z M 0.847656 23 " clip-rule="nonzero"/></clipPath></defs><g clip-path="url(#7244ac9f78)"><path fill="#000000" d="M 36.410156 4.425781 C 36.410156 5.261719 35.726562 5.941406 34.886719 5.941406 L 2.371094 5.941406 C 1.527344 5.941406 0.847656 5.261719 0.847656 4.425781 C 0.847656 3.589844 1.527344 2.914062 2.371094 2.914062 L 34.886719 2.914062 C 35.726562 2.914062 36.410156 3.589844 36.410156 4.425781 Z M 36.410156 4.425781 " fill-opacity="1" fill-rule="evenodd"/></g><g clip-path="url(#e5a310fef1)"><path fill="#000000" d="M 36.410156 14.515625 C 36.410156 15.351562 35.726562 16.03125 34.886719 16.03125 L 2.371094 16.03125 C 1.527344 16.03125 0.847656 15.351562 0.847656 14.515625 C 0.847656 13.679688 1.527344 13.003906 2.371094 13.003906 L 34.886719 13.003906 C 35.726562 13.003906 36.410156 13.679688 36.410156 14.515625 Z M 36.410156 14.515625 " fill-opacity="1" fill-rule="evenodd"/></g><g clip-path="url(#2e889878df)"><path fill="#000000" d="M 36.410156 24.605469 C 36.410156 25.441406 35.726562 26.121094 34.886719 26.121094 L 2.371094 26.121094 C 1.527344 26.121094 0.847656 25.441406 0.847656 24.605469 C 0.847656 23.769531 1.527344 23.09375 2.371094 23.09375 L 34.886719 23.09375 C 35.726562 23.09375 36.410156 23.769531 36.410156 24.605469 Z M 36.410156 24.605469 " fill-opacity="1" fill-rule="evenodd"/></g><g fill="#000000" fill-opacity="1"><g transform="translate(15.650201, 14.661292)"><g><path d="M 1.421875 0.1875 C 1.234375 0.1875 1.070312 0.113281 0.9375 -0.03125 C 0.8125 -0.175781 0.75 -0.351562 0.75 -0.5625 C 0.75 -0.769531 0.816406 -0.945312 0.953125 -1.09375 C 1.085938 -1.238281 1.242188 -1.3125 1.421875 -1.3125 C 1.617188 -1.3125 1.78125 -1.238281 1.90625 -1.09375 C 2.03125 -0.945312 2.09375 -0.769531 2.09375 -0.5625 C 2.09375 -0.351562 2.023438 -0.175781 1.890625 -0.03125 C 1.753906 0.113281 1.597656 0.1875 1.421875 0.1875 Z M 1.421875 0.1875 "/></g></g></g></svg>