<svg xmlns="http://www.w3.org/2000/svg" xmlns:xlink="http://www.w3.org/1999/xlink" width="707" zoomAndPan="magnify" viewBox="0 0 530.25 374.999991" height="500" preserveAspectRatio="xMidYMid meet" version="1.0"><defs><g/><clipPath id="d5679561f4"><path d="M 240 67 L 356 67 L 356 277.449219 L 240 277.449219 Z M 240 67 " clip-rule="nonzero"/></clipPath><clipPath id="7ae8a874f8"><path d="M 284 92 L 360.816406 92 L 360.816406 164 L 284 164 Z M 284 92 " clip-rule="nonzero"/></clipPath><clipPath id="0c71a1d7b5"><path d="M 234.246094 179 L 248 179 L 248 202 L 234.246094 202 Z M 234.246094 179 " clip-rule="nonzero"/></clipPath></defs><g clip-path="url(#d5679561f4)"><path stroke-linecap="round" transform="matrix(0.0129009, 0, 0, -0.0128978, 234.233498, 277.325237)" fill="none" stroke-linejoin="round" d="M 8236.208893 14365.390877 C 8329.770436 14276.95541 8423.634768 14188.519943 8584.718071 13988.328698 C 8745.801375 13788.137452 8974.709228 13475.887567 9024.063699 12651.802273 C 9030.725039 12541.863661 9034.055709 12423.142075 9035.266861 12297.454682 M 8968.047889 10334.308458 C 8958.661456 10080.510782 8953.514057 9840.947582 8956.541938 9630.156195 C 8969.56183 8769.424697 9125.497735 8384.488127 9237.529356 7958.059573 C 9349.258189 7531.328159 9416.77995 7063.407623 9364.700385 6590.035585 C 9312.923609 6116.966409 9141.242719 5638.445731 9094.310554 5729.304087 C 9047.681176 5820.465305 9125.497735 6481.005557 8920.207359 7190.912183 C 8714.614194 7900.818809 8225.914096 8660.091808 8012.751227 9432.387839 C 7929.181694 9734.643305 7888.002503 10039.321661 7877.707706 10341.274266 M 8306.758536 13004.938419 C 8352.176761 13256.010344 8377.00539 13498.602156 8360.957617 13733.319577 C 8319.475639 14349.642095 7997.006243 14911.4496 7541.91563 15298.80906 C 7086.825018 15686.16852 6499.113189 15899.382797 6319.862595 15988.121125 C 6140.309213 16076.556592 6369.217066 16039.910388 6618.714514 15907.257188 C 6868.514751 15774.603987 7138.904582 15545.94379 7149.19938 15082.869033 C 7156.466296 14758.5047 7035.956606 14318.750254 6932.705842 13748.765498 M 7059.574083 9652.567923 C 7255.780814 8958.107218 7541.91563 8562.267644 7815.030555 8072.238242 C 8116.607568 7531.328159 8402.742384 6876.239408 8584.718071 6241.745218 C 8766.693759 5607.251028 8844.813105 4993.65426 8790.008448 4304.342195 C 8735.506578 3615.332992 8548.383492 2850.911352 8272.543473 2208.542771 C 7997.006243 1566.17419 7633.054868 1046.16153 7612.162485 669.09935 C 7591.270101 292.03717 7913.739497 57.925471 7877.404917 34.60516 C 7841.070338 11.284848 7445.628994 198.453063 7209.151437 539.1719 C 6972.371091 879.587876 6894.554533 1373.857336 6990.538381 1888.721356 C 7086.825018 2403.585376 7357.21485 2939.043958 7573.102811 3654.402085 C 7788.990773 4369.457351 7950.074077 5263.806441 7734.488903 6043.976862 C 7518.600942 6824.147284 6925.741714 7489.836176 6585.105028 7903.241698 C 6265.663514 8291.206881 6167.862936 8456.871951 6212.675585 8905.10651 M 5618.302416 14086.455723 C 5689.760423 14359.636515 5799.975316 14614.342774 5867.194288 14864.506116 C 5994.668106 15337.878154 5968.628324 15795.501409 5820.564911 16016.590077 C 5672.19871 16237.678745 5401.808878 16221.929963 5287.354952 16237.678745 C 5172.901025 16253.124665 5214.685792 16300.068149 5279.48246 16211.632682 C 5344.581915 16123.197215 5432.996059 15899.382797 5300.374843 15616.207586 C 5167.753627 15332.729513 4814.09705 14989.284926 4600.934181 14560.433483 C 4557.635474 14472.906599 4519.786953 14382.048243 4488.90256 14288.464135 M 5097.80956 9117.109342 C 5099.626289 9108.629229 5101.14023 9100.149115 5102.654171 9091.669002 C 5256.167771 8311.49858 5786.652636 7656.40983 6213.281161 7123.071277 C 6639.606898 6590.035585 6962.076294 6179.355813 7164.944365 5627.845589 C 7367.812435 5076.638226 7451.079181 4384.903272 7320.88027 3851.86758 C 7190.984147 3318.831888 6847.622367 2944.495459 6577.232536 2564.707529 C 6306.842704 2184.919598 6109.122032 1800.285889 6135.161815 1441.395381 C 6161.201597 1082.504872 6410.699045 749.660426 6335.304792 884.736516 C 6259.910539 1020.115467 5859.624584 1623.414955 5888.086672 2359.367643 C 5916.548759 3095.320331 6374.364465 3963.623358 6278.077829 4741.37089 C 6181.791192 5518.815561 5532.007789 6205.401876 5009.092628 6982.846546 C 4486.480255 7760.291217 4091.341699 8628.897106 4000.202461 9406.341777 C 3909.063224 10183.786448 4122.52888 10870.372762 4091.341699 11398.259814 C 4060.154518 11926.146865 3784.314499 12295.334654 3685.302769 12775.066776 C 3586.291039 13255.10176 3663.80481 13845.378217 3861.525482 14310.573002 C 4059.246154 14776.070649 4376.870939 15116.789486 4525.23714 15401.479003 C 4673.603341 15686.16852 4653.013746 15915.131579 4715.388108 16050.51053 C 4777.76247 16185.58662 4923.403577 16227.078603 4983.052846 16180.43798 C 5043.004902 16133.494496 5016.96512 15998.418406 4921.28406 15927.548888 C 4825.905788 15856.679369 4660.886238 15850.319284 4419.56407 15814.278803 C 4178.544691 15778.541183 3861.222693 15713.728888 3632.314841 15635.590702 C 3403.406988 15557.755376 3262.913279 15466.594159 3190.244119 15353.626935 C 3117.57496 15240.356851 3112.124773 15105.280761 3182.371627 15059.548721 C 3252.618481 15014.119543 3398.259589 15058.337277 3507.566116 14954.153028 C 3616.569856 14850.27164 3689.541804 14597.98827 3741.621368 14435.654673 C 3793.398144 14273.018215 3824.888114 14200.33153 3837.605217 14295.127082 C 3850.625108 14390.225495 3845.477709 14652.806145 3819.437927 14852.997391 C 3793.398144 15053.188636 3746.768767 15190.990477 3648.059825 15260.042828 C 3549.048095 15328.792318 3398.259589 15328.792318 3311.056597 15250.654131 C 3224.156394 15172.818806 3200.538917 15016.845294 3147.2482 14873.591952 C 3093.957483 14730.641471 3010.690737 14600.714021 2934.085331 14535.598865 C 2857.479926 14470.786571 2787.233071 14470.786571 2736.36466 14511.067109 C 2685.799036 14551.347647 2654.611855 14631.908723 2654.611855 14617.674247 C 2654.611855 14603.439771 2685.799036 14494.106882 2756.04589 14405.671415 C 2826.292745 14317.235948 2935.296484 14249.697903 3045.814164 14194.880028 C 3156.331845 14140.365014 3268.363466 14098.873031 3287.741908 14097.358725 C 3307.423139 14096.147281 3234.451191 14135.216374 3159.056938 14189.731388 C 3083.662685 14244.549263 3005.543338 14314.510198 2962.850207 14414.757251 C 2919.854288 14515.004304 2911.981795 14644.931754 2938.021578 14787.882235 C 2964.06136 14930.832716 3023.710628 15087.109089 3025.224569 15100.132121 C 3026.435722 15112.85229 2969.208759 14982.924841 2879.583462 14903.575209 C 2789.655377 14824.225578 2667.631746 14795.756626 2529.863131 14765.773368 C 2391.791727 14735.790111 2238.580916 14704.595408 2095.362114 14689.149488 C 1952.4461 14673.400706 1819.824883 14673.400706 1726.26334 14639.783114 C 1632.701797 14605.862661 1577.897139 14538.324616 1561.24379 14461.700735 C 1544.287653 14384.773993 1564.877248 14299.064277 1588.494725 14210.62881 C 1611.809414 14122.193343 1637.849196 14031.334986 1637.849196 14047.992352 C 1637.849196 14064.952578 1611.809414 14189.731388 1629.976704 14249.697903 C 1648.143994 14309.361557 1710.518356 14304.212917 1750.789182 14233.949121 C 1791.362796 14163.685326 1809.530086 14028.609236 1853.737158 13950.471049 C 1897.94423 13872.635724 1968.191084 13851.738302 2038.13515 13888.081644 C 2108.382005 13924.727848 2178.628859 14018.311955 2190.437598 14034.969321 C 2202.246336 14051.929547 2155.31417 13992.265893 2111.107098 14007.711814 C 2066.900026 14023.460595 2025.418047 14114.318952 1959.107439 14223.651841 C 1892.796831 14332.681869 1801.657593 14460.186429 1734.135833 14479.872407 C 1666.311284 14499.255523 1622.104211 14410.820056 1605.148074 14308.150113 C 1588.494725 14205.48017 1598.789523 14088.27289 1548.223899 14022.249151 C 1497.355487 13955.92255 1385.626654 13940.173769 1308.71846 13901.104675 C 1232.113055 13862.338443 1190.631076 13799.949038 1177.611185 13730.896687 C 1164.591294 13662.147198 1180.03349 13586.4319 1203.650967 13499.510739 C 1226.965656 13412.286717 1258.152837 13313.55397 1303.571062 13231.478588 C 1349.292074 13149.706067 1408.941343 13084.590911 1437.706219 13047.036124 C 1466.168306 13009.178475 1463.746001 12998.881195 1442.853618 13044.310373 C 1421.961234 13089.739551 1382.901561 13191.198049 1363.523118 13306.891023 C 1343.841888 13422.583997 1343.841888 13552.814309 1358.375719 13647.609861 C 1372.606763 13742.708274 1401.068851 13802.371928 1372.606763 13819.332154 C 1343.841888 13836.292381 1258.152837 13810.246319 1229.690749 13746.645469 C 1200.925874 13682.741758 1229.690749 13581.28326 1242.407852 13496.784989 C 1255.427743 13412.286717 1253.005438 13344.748672 1204.86212 13318.70261 C 1156.718801 13292.656548 1063.157258 13308.405329 990.18531 13275.696321 C 917.516151 13243.290174 865.436586 13162.729098 853.930636 13099.128248 C 842.121898 13035.224537 870.583985 12988.583914 936.894593 12981.920968 C 1003.205202 12975.258022 1107.36433 13009.178475 1210.009518 13014.327115 C 1312.654706 13019.778617 1414.088742 12996.155444 1415.602683 13027.653008 C 1416.813835 13058.84771 1318.104893 13144.557426 1217.882011 13175.752129 C 1117.659128 13206.946831 1016.225093 13183.62652 973.531961 13124.871449 C 930.536042 13066.41924 945.978238 12972.835133 931.747195 12907.719977 C 917.516151 12842.907683 873.309079 12806.261479 790.042333 12751.746465 C 706.775588 12697.231451 584.751957 12624.241905 535.094698 12490.377259 C 485.740227 12356.512614 509.357704 12161.470009 664.082456 11978.23899 C 818.807209 11795.007971 1104.639237 11623.285677 1441.339677 11465.797859 C 1778.342905 11308.612902 2165.608968 11165.662421 2548.030421 11130.530523 C 2930.149085 11095.398625 3307.423139 11168.08531 3684.394405 11241.074857 " stroke="#231f20" stroke-width="61.439999" stroke-opacity="1" stroke-miterlimit="22.926001"/></g><path stroke-linecap="round" transform="matrix(0.0111851, 0, 0, -0.0111824, 234.233498, 277.325237)" fill="none" stroke-linejoin="round" d="M 1485.029263 13311.282091 C 1749.750035 13097.148882 2014.470807 12882.666352 2137.751061 12493.873103 C 2261.031315 12104.730533 2242.871051 11540.927923 2308.876626 11012.755961 C 2374.882201 10484.933319 2525.053615 9993.090646 2627.030482 9597.310995 C 2729.007349 9201.182023 2782.78967 8901.465394 2764.978641 8691.524026 C 2746.818377 8481.582657 2656.715529 8361.416549 2605.727095 8394.601957 C 2555.087898 8427.438045 2542.864643 8613.276328 2569.755803 8796.32005 C 2596.996199 8979.363772 2663.001774 9159.263613 2644.84151 9285.368163 C 2627.030482 9411.123392 2525.053615 9483.083328 2281.985465 9426.144155 C 2038.917316 9369.204982 1655.107121 9183.366699 1307.268217 7797.613939 C 959.080078 6411.86118 647.212467 3826.543263 334.99562 1241.225347 " stroke="#231f20" stroke-width="70.865997" stroke-opacity="1" stroke-miterlimit="22.926001"/><g clip-path="url(#7ae8a874f8)"><path stroke-linecap="round" transform="matrix(0.0113361, 0, 0, -0.0113334, 234.233498, 277.325237)" fill="none" stroke-linejoin="round" d="M 7528.203682 10623.418437 C 7556.114985 10642.030459 7584.715455 10660.297814 7614.349678 10677.531168 C 7737.36616 10749.911253 7874.855169 10807.815322 7994.081228 10938.099476 C 8113.65187 11068.38363 8214.959561 11271.047869 8258.377143 11426.492719 C 8301.794725 11582.282237 8287.322197 11690.507698 8178.778243 11791.839818 C 8070.234288 11893.171937 7867.618906 11987.266048 7860.382642 11980.02804 C 7853.146378 11972.790031 8041.289233 11864.219903 8113.65187 11708.775053 C 8186.014506 11552.985535 8142.596924 11350.665963 8005.107915 11281.732548 C 7867.618906 11213.143801 7636.058469 11278.285878 7393.471345 11397.540685 C 7151.228804 11517.14016 6897.959577 11690.507698 6749.44388 11911.439292 C 6601.272767 12132.026219 6557.855185 12399.832536 6561.301025 12605.943446 C 6565.091449 12812.054356 6615.745294 12956.814527 6684.317507 12971.290544 C 6753.234304 12985.766561 6840.069467 12869.958425 6869.014522 12740.018938 C 6897.959577 12609.734784 6869.014522 12464.974613 6923.114207 12349.166476 C 6977.558477 12233.358339 7115.047486 12146.502237 7194.646386 12020.00942 C 7274.245286 11893.171937 7295.954077 11726.697741 7353.844187 11603.651595 C 7411.734296 11480.950117 7505.805723 11401.332023 7596.086727 11365.14198 C 7686.712315 11328.951937 7773.547478 11336.189946 7788.020006 11455.444754 C 7802.492533 11575.044228 7744.602424 11806.315835 7632.268045 12008.980074 C 7520.278251 12211.644314 7353.844187 12385.356519 7306.636181 12381.565181 C 7259.772759 12378.11851 7332.135396 12197.168296 7516.487827 12088.598168 C 7701.184842 11980.02804 7997.871651 11943.837997 8251.140879 12020.00942 C 8504.065523 12095.836177 8714.261753 12284.024399 8862.432866 12399.832536 C 9010.603979 12515.640673 9097.439142 12559.068724 9191.855154 12645.924827 C 9285.581997 12732.436262 9386.889688 12863.065083 9423.071007 13065.384655 C 9459.252325 13268.048895 9430.30727 13543.09322 9314.527052 13622.711314 C 9198.746833 13702.329408 8996.131451 13586.521271 8836.933651 13434.523092 C 8678.080435 13282.524912 8562.300216 13094.33669 8458.925021 12949.576519 C 8355.89441 12805.161015 8265.268823 12703.828895 8128.124397 12607.666781 C 7990.290804 12511.849335 7805.938373 12421.546561 7657.76726 12408.79388 C 7509.251563 12396.041198 7397.261768 12461.183275 7415.180136 12490.135309 C 7433.443087 12519.087343 7581.6142 12511.849335 7675.685627 12575.268076 C 7769.757054 12638.686818 7809.728797 12772.417643 7876.578089 12833.768382 C 7943.427382 12895.463788 8037.49881 12884.779109 8109.861446 12918.901149 C 8182.224083 12953.367856 8232.877928 13032.98595 8267.336326 13040.223959 C 8301.794725 13047.461968 8319.713092 12982.319891 8310.753908 12922.692487 C 8301.794725 12863.065083 8265.613407 12808.607685 8261.822983 12850.312401 C 8258.377143 12891.67245 8287.322197 13029.194613 8247.350455 13078.137337 C 8207.723297 13127.080062 8098.834759 13087.098681 7968.926597 13052.976641 C 7838.673851 13018.509933 7686.712315 12989.557899 7699.117338 12991.281235 C 7711.866945 12993.00457 7889.327697 13025.747942 8082.639311 13105.366036 C 8276.29551 13184.98413 8486.147156 13311.476946 8643.622036 13437.969762 C 8800.752333 13564.807245 8905.850448 13691.300062 8952.713869 13825.375553 C 8999.921875 13959.106378 8988.895188 14100.075211 8940.308846 14255.864728 C 8891.37792 14411.309579 8804.542756 14581.230446 8766.638518 14742.534637 C 8728.389696 14903.49416 8739.416384 15055.49234 8674.290011 15173.023812 C 8609.163638 15290.555284 8468.228789 15373.964716 8335.908539 15317.783983 C 8203.932874 15261.60325 8080.916391 15066.177019 7869.341826 14934.16953 C 7657.422676 14802.162041 7357.290026 14733.573293 7198.092226 14641.202517 C 7038.894426 14548.831741 7020.976059 14433.023604 7064.393641 14358.920184 C 7107.811222 14284.816763 7212.564753 14252.073391 7312.149525 14194.169322 C 7411.734296 14136.265254 7505.805723 14053.200489 7536.473698 13915.678327 C 7567.141672 13778.156164 7534.750778 13586.521271 7493.056116 13461.75179 C 7451.361454 13336.637643 7400.707608 13279.078241 7362.80337 13280.801577 C 7324.899132 13282.524912 7299.399917 13344.220318 7328.344972 13378.342358 C 7357.290026 13412.809066 7440.67935 13420.047074 7503.738219 13398.333049 C 7567.141672 13376.619023 7610.559254 13325.952963 7599.877151 13269.77223 C 7588.850463 13213.936164 7523.72409 13152.240758 7503.738219 13150.517423 C 7484.096932 13148.794087 7509.251563 13206.698156 7568.864592 13219.10617 C 7628.822205 13231.858852 7722.893633 13199.460147 7733.575736 13153.964093 C 7744.602424 13108.812707 7672.239787 13050.908638 7605.04591 13011.271925 C 7538.196618 12971.290544 7476.860669 12949.576519 7444.12519 12953.367856 C 7411.734296 12956.814527 7407.943872 12985.766561 7456.874798 12989.557899 C 7505.805723 12993.00457 7607.113414 12971.290544 7637.781389 12926.139158 C 7668.449363 12880.987771 7628.822205 12812.054356 7558.182489 12770.694307 C 7487.542772 12728.989591 7386.235081 12714.513574 7348.330843 12728.989591 C 7310.426605 12743.465608 7335.581235 12786.89366 7377.275897 12797.578339 C 7418.970559 12808.607685 7476.860669 12786.89366 7458.597718 12750.703617 C 7440.67935 12714.513574 7346.607923 12663.847514 7250.468992 12640.410153 C 7154.674644 12616.972792 7057.157377 12620.419463 7022.698979 12662.124179 C 6988.24058 12703.828895 7017.185635 12783.446989 7038.894426 12790.340331 C 7060.603217 12797.923006 7075.075744 12732.436262 7035.448586 12736.572267 C 6995.821428 12740.363605 6902.094584 12813.088357 6817.326925 12899.94446 C 6732.214681 12986.800563 6655.717036 13087.788015 6646.413269 13158.100098 C 6637.454085 13228.412181 6695.344194 13268.048895 6751.1668 13250.126207 C 6807.333989 13231.858852 6861.778258 13156.032096 6847.305731 13127.080062 C 6832.833204 13098.128027 6749.44388 13116.050715 6722.221745 13181.192792 C 6695.344194 13246.334869 6724.289249 13358.351668 6789.415622 13402.124387 C 6854.541995 13445.552438 6955.849686 13420.047074 7013.739795 13367.657679 C 7071.629904 13315.268284 7086.102432 13235.65019 7073.352824 13239.096861 C 7060.603217 13242.888198 7020.976059 13329.744301 7029.935242 13402.124387 C 7038.894426 13474.159805 7096.784535 13532.063873 7147.438381 13517.587856 C 7198.092226 13503.456506 7241.509808 13416.255737 7239.786888 13354.904997 C 7238.063968 13293.554258 7190.855962 13257.364216 7168.11342 13288.728919 C 7145.026293 13320.093623 7146.404629 13419.013073 7189.822211 13498.2865 C 7233.239792 13577.904594 7318.69662 13638.221332 7359.35753 13742.310788 C 7400.01844 13846.055578 7395.538849 13993.228418 7312.494109 14092.837203 C 7229.104785 14192.445987 7067.150312 14244.146048 6935.519231 14246.21405 C 6803.888149 14248.62672 6702.580458 14201.407331 6620.914054 14186.931314 C 6539.592234 14172.455297 6478.256285 14190.722652 6422.089096 14129.371912 C 6365.921906 14067.676506 6315.268061 13926.707673 6304.585957 13787.462175 C 6293.55927 13647.87201 6322.504324 13510.349848 6390.387369 13394.197044 C 6458.270414 13277.699573 6564.746865 13182.571461 6579.219392 13130.182065 C 6593.691919 13077.79267 6516.160523 13068.141992 6421.055344 13097.438693 C 6326.294748 13127.080062 6213.96037 13195.668809 6141.597733 13226.344179 C 6069.235097 13257.364216 6036.844202 13250.126207 6035.121282 13197.392145 C 6033.053778 13145.002749 6061.998833 13047.461968 6130.91563 12955.091192 C 6199.487842 12863.065083 6308.031797 12775.864313 6386.941529 12701.760893 C 6465.506678 12627.312805 6514.437603 12565.617398 6518.228027 12589.054759 C 6521.673867 12612.49212 6479.979205 12721.406916 6488.938388 12788.272328 C 6497.552988 12854.793073 6557.166017 12879.609103 6529.943882 12926.483825 C 6502.721748 12973.703214 6389.009033 13042.981296 6312.511389 13086.754014 C 6235.669161 13130.526732 6196.042003 13148.794087 6157.79318 13116.050715 C 6119.888942 13083.65201 6083.707624 13000.242578 6065.789257 12908.21647 C 6047.526306 12815.845694 6047.526306 12714.513574 5938.982351 12653.162835 C 5830.438396 12591.467429 5613.350487 12569.753403 5417.971368 12662.124179 C 5222.59225 12754.150288 5048.921922 12960.605865 4953.127575 13148.794087 C 4857.333227 13336.637643 4839.070276 13506.903177 4786.693511 13617.196641 C 4734.316745 13727.490104 4647.481581 13778.156164 4661.954109 13879.488284 C 4676.426636 13980.820404 4792.206854 14132.818583 4983.795549 14259.311399 C 5175.728828 14386.148882 5443.470583 14487.481002 5669.517676 14492.651008 C 5895.564769 14498.165681 6080.261784 14407.862908 6185.015315 14306.530788 C 6290.11343 14205.198669 6315.268061 14093.18187 6336.976852 14102.143214 C 6358.685643 14111.104557 6376.948594 14241.388711 6474.465861 14297.569444 C 6572.327712 14353.40551 6749.44388 14335.482823 6876.250786 14409.586243 C 7002.713108 14483.689664 7078.866168 14650.163861 7124.00667 14814.914722 C 7169.147172 14979.320916 7183.619699 15142.348442 7118.493326 15325.021992 C 7053.366953 15507.695541 6908.64168 15710.015113 6698.790034 15862.35796 C 6488.938388 16014.356139 6213.96037 16115.343592 6006.176228 16140.848955 C 5798.047502 16166.009652 5656.768069 16115.343592 5515.833219 16129.819609 C 5374.553786 16144.295626 5233.618937 16223.91372 5106.812031 16262.171765 C 4980.349709 16300.085143 4868.015331 16296.293806 4793.929774 16236.666402 C 4719.844218 16177.038998 4683.6629 16061.230861 4672.636212 15947.14606 C 4661.954109 15833.405925 4676.426636 15721.044459 4634.731974 15581.798962 C 4593.037312 15442.553464 4495.520045 15276.079267 4481.047517 15032.054979 C 4466.57499 14787.686023 4535.147203 14465.766976 4665.399949 14254.141393 C 4795.652694 14042.51581 4987.585973 13940.839023 5253.260224 13901.202309 C 5519.279059 13861.565596 5859.383451 13883.279622 6152.624421 13866.735602 C 6445.520806 13850.53625 6691.553771 13796.423519 6787.692702 13849.846915 C 6883.831633 13903.959646 6830.076532 14065.608504 6880.730377 14313.42413 C 6931.384223 14561.239756 7086.447016 14895.22215 7254.603999 15143.382444 C 7422.416399 15391.887404 7603.322991 15554.570263 7804.215453 15623.503677 C 8005.107915 15692.092425 8225.641664 15666.931729 8448.242918 15677.616408 C 8670.499587 15688.645754 8894.82376 15735.520476 9068.494088 15645.217703 C 9242.164415 15554.570263 9365.180897 15326.745327 9414.111823 15147.863116 C 9463.042749 14968.636237 9437.888118 14838.352083 9472.001932 14641.202517 C 9506.460331 14444.052951 9600.531758 14179.693305 9531.614961 13904.993647 C 9463.042749 13629.949322 9231.482312 13344.220318 8967.186397 13177.746122 C 8703.235065 13011.961259 8406.548256 12965.431204 8225.641664 13017.820599 C 8044.735073 13070.209994 7979.6087 13221.863507 7950.663646 13293.554258 C 7921.718591 13365.934344 7928.954855 13358.351668 8008.553755 13430.731754 C 8088.152655 13503.456506 8240.114192 13655.110019 8433.77039 13819.86088 C 8627.426589 13984.611741 8862.432866 14161.770617 9113.979174 14232.427367 C 9365.180897 14302.739451 9632.922652 14266.549408 9804.87006 14212.436677 C 9976.817468 14157.97928 10052.625944 14085.943861 10166.683243 14037.001137 C 10280.740541 13988.058412 10432.702078 13962.897716 10532.286849 13890.51763 C 10631.527036 13818.137545 10678.735042 13698.53807 10776.252309 13584.797936 C 10874.11416 13470.713134 11022.285273 13362.143006 11075.006623 13235.65019 C 11127.383388 13108.812707 11083.965806 12964.052536 11007.812746 12850.312401 C 10932.00427 12736.2276 10823.460315 12653.162835 10747.307255 12513.57267 C 10671.498778 12374.327172 10628.081196 12179.245609 10521.260162 12021.732756 C 10414.439127 11864.219903 10244.559223 11744.965096 9982.330812 11688.784362 C 9719.757816 11632.948297 9365.180897 11639.841638 9097.439142 11721.183067 C 8829.352803 11802.869164 8648.101628 11958.314014 8465.127533 12006.567405 C 8281.808854 12054.820795 8096.767255 11995.882725 7972.372437 11805.971168 C 7847.633035 11616.05961 7783.540414 11295.174564 7688.09065 11007.377558 C 7592.640887 10719.925218 7465.833981 10465.21625 7295.954077 10297.018718 C 7125.72959 10128.821186 6912.432104 10046.790423 6743.930536 10067.12578 C 6575.773552 10087.805804 6452.75707 10210.85195 6304.585957 10261.51801 C 6156.07026 10312.18407 5982.399933 10290.470044 5846.633843 10352.16545 C 5711.212338 10413.516189 5613.350487 10558.27636 5602.668383 10748.187918 C 5591.641696 10938.099476 5667.794756 11173.16242 5853.870107 11384.788003 C 6040.290042 11596.758254 6336.976852 11784.601809 6512.370099 11820.791852 C 6688.107931 11856.981895 6742.207616 11741.173758 6702.580458 11551.2622 C 6662.608716 11361.350642 6528.91013 11097.335664 6311.822221 10920.176788 C 6094.734311 10742.673245 5794.257078 10652.370471 5526.515323 10630.656446 C 5258.773568 10608.94242 5023.767291 10655.817142 4879.042018 10749.911253 C 4734.316745 10844.005365 4679.872476 10984.974198 4638.522398 11187.638437 C 4596.827736 11390.302677 4567.882681 11654.317655 4598.550656 11900.409946 C 4629.21863 12146.502237 4719.844218 12374.327172 4853.542803 12521.155346 C 4987.585973 12667.638852 5164.70214 12732.436262 5161.256301 12687.284875 C 5157.465877 12642.133489 4973.113446 12486.688638 4871.805755 12255.072365 C 4770.498063 12023.456091 4752.235112 11716.013061 4821.151909 11498.872805 C 4889.724122 11281.732548 5045.476082 11155.239732 5115.771215 11052.184277 C 5186.410931 10948.784155 5171.938404 10869.166061 5246.368544 10855.034711 C 5320.454101 10840.558694 5483.097741 10890.880087 5689.503547 10938.099476 C 5895.564769 10984.974198 6145.388157 11028.402249 6329.05142 11190.051107 C 6513.059267 11351.699964 6631.251574 11631.569628 6644.001181 11863.185902 C 6656.750788 12094.457508 6563.713113 12278.165059 6532.700554 12378.463177 C 6501.687996 12479.105963 6532.35597 12497.028651 6562.679361 12514.606671 " stroke="#231f20" stroke-width="69.924004" stroke-opacity="1" stroke-miterlimit="22.926001"/></g><path stroke-linecap="round" transform="matrix(0.0111851, 0, 0, -0.0111824, 234.233498, 277.325237)" fill="none" stroke-linejoin="round" d="M 8527.020877 8108.508811 C 8391.866604 8120.385694 8232.615058 8414.862522 8168.006426 8682.092383 C 8103.397795 8949.322245 8133.432077 9189.30514 8151.243106 9429.288036 C 8169.40337 9669.270931 8175.340379 9909.253826 8166.260247 10026.276053 C 8157.529351 10142.94896 8133.432077 10137.010519 8217.248681 10026.276053 C 8301.41452 9915.192268 8493.145 9699.312458 8622.362263 9450.247241 C 8751.23029 9201.531343 8817.235865 8919.280718 8794.884771 8643.317854 C 8772.533677 8367.005671 8661.825914 8096.282608 8527.020877 8108.508811 Z M 8527.020877 8108.508811 " stroke="#231f20" stroke-width="70.865997" stroke-opacity="1" stroke-miterlimit="22.926001"/><path stroke-linecap="round" transform="matrix(0.0111851, 0, 0, -0.0111824, 234.233498, 277.325237)" fill="none" stroke-linejoin="round" d="M 8734.46697 7473.794225 C 8665.318272 7685.482194 8596.169574 7896.820842 8601.058876 8160.906823 C 8606.297414 8424.992804 8685.573951 8741.826117 8625.505385 9061.453991 C 8565.43682 9381.081865 8366.023151 9703.504299 8166.260247 10026.276053 " stroke="#231f20" stroke-width="70.865997" stroke-opacity="1" stroke-miterlimit="22.926001"/><path stroke-linecap="round" transform="matrix(0.0123294, 0, 0, -0.0123264, 234.233498, 277.325237)" fill="none" stroke-linejoin="round" d="M 7333.611701 14796.194091 C 7275.949611 14859.257406 7218.287522 14922.637622 7143.200076 15035.771307 C 7068.112631 15149.221894 6975.599828 15312.425951 6933.462148 15509.538423 C 6891.324467 15706.967796 6899.245084 15937.988683 6880.235604 16086.298389 C 6861.226124 16234.608095 6814.969723 16299.889717 6828.593183 16279.608048 C 6842.216644 16259.326379 6915.719966 16153.164517 7008.232769 16054.925182 C 7100.745571 15957.319649 7212.267854 15867.319742 7286.404825 15744.679024 C 7360.541797 15621.721405 7397.293458 15466.122975 7408.699146 15349.820278 C 7419.78801 15233.517581 7405.5309 15157.144421 7391.27379 15080.45436 " stroke="#231f20" stroke-width="64.286003" stroke-opacity="1" stroke-miterlimit="22.926001"/><path stroke-linecap="round" transform="matrix(0.0111851, 0, 0, -0.0111824, 234.233498, 277.325237)" fill="none" stroke-linejoin="round" d="M 7096.201613 8303.778736 C 6935.902359 8459.924812 6775.952341 8616.070888 6575.840201 8718.421672 C 6375.728061 8820.423135 6135.803034 8868.279986 5954.200394 8961.548448 C 5772.946989 9054.467589 5650.015971 9192.449021 5619.981688 9213.408226 C 5589.947406 9234.367431 5652.809858 9138.304409 5736.975697 8976.569211 C 5820.7923 8814.484694 5925.91229 8586.378681 6051.986431 8416.958442 C 6177.711336 8247.538203 6324.739627 8136.454418 6519.61323 8082.659125 C 6714.836068 8028.514513 6957.554981 8031.658393 7095.153905 8035.850234 C 7233.102065 8040.042075 7265.231762 8045.631197 7297.710696 8051.220318 " stroke="#231f20" stroke-width="70.865997" stroke-opacity="1" stroke-miterlimit="22.926001"/><path stroke-linecap="round" transform="matrix(0.0111851, 0, 0, -0.0111824, 234.233498, 277.325237)" fill="none" stroke-linejoin="round" d="M 7233.800536 8131.563936 C 7033.688396 8171.037106 6833.925492 8210.859595 6643.941191 8286.312732 C 6453.95689 8361.416549 6273.751194 8472.500335 6143.835459 8600.700805 C 6013.919724 8729.250594 5933.944715 8874.917068 5863.399074 8972.02805 C 5792.853433 9069.488353 5731.737159 9118.742484 5670.620886 9167.996615 " stroke="#231f20" stroke-width="70.865997" stroke-opacity="1" stroke-miterlimit="22.926001"/><path stroke-linecap="round" transform="matrix(0.0111851, 0, 0, -0.0111824, 234.233498, 277.325237)" fill="none" stroke-linejoin="round" d="M 8143.559917 2511.70248 C 8222.836454 2741.904413 8302.112991 2971.757026 8494.541943 3107.991858 C 8686.621659 3244.226689 8991.853789 3286.494419 9222.349448 3418.537409 C 9453.194342 3550.5804 9608.95353 3772.747971 9663.085086 3865.667112 C 9716.867407 3958.586254 9669.022096 3922.606286 9612.096652 3772.747971 C 9555.171209 3622.540336 9489.165634 3358.803675 9372.171626 3106.594577 C 9255.177617 2854.734799 9087.195175 2614.751904 8860.54111 2462.099029 C 8633.887046 2309.446153 8348.561359 2243.773978 8201.533068 2184.738885 C 8054.854012 2125.354471 8046.472352 2072.257819 8038.090691 2019.510487 " stroke="#231f20" stroke-width="70.865997" stroke-opacity="1" stroke-miterlimit="22.926001"/><path stroke-linecap="round" transform="matrix(0.0111851, 0, 0, -0.0111824, 234.233498, 277.325237)" fill="none" stroke-linejoin="round" d="M 9612.096652 3772.747971 C 9532.121644 3550.5804 9452.146635 3328.762149 9228.984929 3172.965393 C 9005.823223 3017.517957 8639.474819 2928.092016 8421.551651 2773.34322 C 8203.279247 2618.594425 8133.082842 2398.522774 8063.235672 2178.451123 " stroke="#231f20" stroke-width="70.865997" stroke-opacity="1" stroke-miterlimit="22.926001"/><path stroke-linecap="round" transform="matrix(0.0111851, 0, 0, -0.0111824, 234.233498, 277.325237)" fill="none" stroke-linejoin="round" d="M 8278.71419 4913.627354 C 8139.369087 4846.208579 7899.44406 4960.436245 7761.495901 5167.233733 C 7623.547741 5374.38054 7587.576449 5674.09717 7524.364761 5938.18315 C 7461.502308 6201.919811 7371.39946 6430.025824 7305.393885 6549.842612 C 7239.737546 6670.008719 7197.480008 6681.885602 7320.411026 6619.007987 C 7443.342044 6555.781053 7731.461618 6417.799621 7954.97256 6215.543294 C 8178.134266 6012.937648 8337.385812 5745.707786 8397.105142 5487.560247 C 8457.173707 5229.762027 8418.408528 4981.04613 8278.71419 4913.627354 Z M 8278.71419 4913.627354 " stroke="#231f20" stroke-width="70.865997" stroke-opacity="1" stroke-miterlimit="22.926001"/><path stroke-linecap="round" transform="matrix(0.0111851, 0, 0, -0.0111824, 234.233498, 277.325237)" fill="none" stroke-linejoin="round" d="M 8443.902745 4442.743885 C 8436.219557 4687.966582 8428.187132 4932.839959 8312.240831 5217.885144 C 8196.643766 5503.27965 7973.132824 5828.496645 7777.909985 6072.322061 C 7583.036383 6315.798158 7416.450884 6477.533355 7249.865385 6639.268552 " stroke="#231f20" stroke-width="70.865997" stroke-opacity="1" stroke-miterlimit="22.926001"/><g clip-path="url(#0c71a1d7b5)"><path stroke-linecap="round" transform="matrix(0.0111851, 0, 0, -0.0111824, 234.233498, 277.325237)" fill="none" stroke-linejoin="round" d="M 962.572436 6862.833404 C 1131.25335 6908.245014 1147.667435 7130.761906 1092.837407 7331.970272 C 1038.007379 7533.527958 911.933239 7713.77712 776.080494 7877.258918 C 640.576986 8040.740715 495.644109 8187.455149 381.443987 8348.491706 C 267.593101 8509.178944 184.824206 8684.188304 141.868197 8704.798189 C 99.261423 8725.408073 96.467537 8591.269162 79.704216 8430.581925 C 62.940895 8269.894688 32.557377 8082.659125 41.986744 7853.155832 C 51.416112 7624.001859 101.007603 7352.580157 286.801073 7151.02247 C 472.245308 6949.115464 793.542287 6817.421793 962.572436 6862.833404 Z M 962.572436 6862.833404 " stroke="#231f20" stroke-width="70.865997" stroke-opacity="1" stroke-miterlimit="22.926001"/></g><path stroke-linecap="round" transform="matrix(0.0111851, 0, 0, -0.0111824, 234.233498, 277.325237)" fill="none" stroke-linejoin="round" d="M 1019.847115 6314.750197 C 973.398748 6645.556314 926.601144 6976.71175 797.383881 7270.839258 C 668.515853 7565.316086 456.87893 7822.764985 333.947912 8055.761479 C 211.016894 8288.408653 176.442545 8496.603421 141.868197 8704.798189 " stroke="#231f20" stroke-width="70.865997" stroke-opacity="1" stroke-miterlimit="22.926001"/><path stroke-linecap="round" transform="matrix(0.0111851, 0, 0, -0.0111824, 234.233498, 277.325237)" fill="none" stroke-linejoin="round" d="M 2505.147171 10056.31758 C 2549.500124 10327.040643 2594.202312 10598.113025 2718.181038 10814.342155 C 2842.508999 11030.920605 3046.462734 11193.005123 3208.508167 11300.945027 C 3370.5536 11408.884932 3490.341495 11462.680225 3622.352645 11591.928655 C 3754.363795 11720.827764 3898.248964 11924.830691 3985.20869 12074.689006 C 4072.168416 12224.547321 4102.202699 12320.610343 4099.059576 12314.671901 C 4096.265689 12308.73346 4060.294397 12200.444235 3880.437936 12098.792092 C 3700.232239 11996.790628 3376.490609 11900.727606 3157.519733 11801.870023 C 2938.548857 11702.66312 2824.697971 11600.661657 2785.583556 11429.844137 C 2746.469142 11259.026618 2782.440434 11019.043722 2881.623414 10883.856851 C 2980.457159 10749.0193 3142.502592 10718.977773 3298.261779 10808.753034 C 3454.370203 10898.877615 3604.192381 11108.818983 3709.312371 11291.862705 C 3814.432361 11474.906428 3874.151691 11630.703184 3922.346237 11774.623057 C 3970.191549 11918.54293 4006.162841 12050.58592 4042.134133 12182.628911 " stroke="#231f20" stroke-width="70.865997" stroke-opacity="1" stroke-miterlimit="22.926001"/><path stroke-linecap="butt" transform="matrix(0.748941, 0, 0, 0.748941, 6.358186, 286.171279)" fill="none" stroke-linejoin="miter" d="M 0.00158802 1.002211 L 114.0533 1.002211 " stroke="#000000" stroke-width="2" stroke-opacity="1" stroke-miterlimit="4"/><g fill="#000000" fill-opacity="1"><g transform="translate(6.360017, 256.877006)"><g><path d="M 36.335938 -46.988281 C 36.335938 -46.988281 36.269531 -46.988281 36.269531 -46.988281 C 36.269531 -47.054688 36.269531 -47.054688 36.269531 -47.054688 C 36.269531 -47.054688 36.203125 -47.054688 36.203125 -47.054688 C 36.203125 -47.121094 36.203125 -47.121094 36.203125 -47.121094 C 36.132812 -47.121094 36.132812 -47.121094 36.132812 -47.121094 C 36.132812 -47.121094 36.066406 -47.121094 36.066406 -47.121094 L 5.054688 -47.121094 C 4.921875 -47.121094 4.855469 -47.054688 4.855469 -46.851562 C 4.855469 -46.71875 4.921875 -46.582031 5.054688 -46.582031 C 5.257812 -46.582031 5.394531 -46.449219 5.394531 -46.3125 L 5.394531 -0.539062 C 5.394531 -0.335938 5.257812 -0.203125 5.054688 -0.203125 C 4.921875 -0.203125 4.855469 -0.136719 4.855469 0 C 4.855469 0.203125 4.921875 0.269531 5.054688 0.269531 L 9.304688 0.269531 C 9.503906 0.269531 9.574219 0.203125 9.574219 0 C 9.574219 -0.136719 9.503906 -0.203125 9.304688 -0.203125 C 9.167969 -0.203125 9.035156 -0.335938 9.035156 -0.539062 L 9.035156 -24 L 27.4375 -24 C 27.574219 -24 27.707031 -24.132812 27.707031 -24.269531 C 27.707031 -24.402344 27.574219 -24.539062 27.4375 -24.539062 L 9.035156 -24.539062 L 9.035156 -46.582031 L 14.628906 -46.582031 C 24.203125 -46.582031 35.933594 -44.023438 36 -44.023438 C 36.066406 -44.023438 36.066406 -44.023438 36.066406 -44.023438 C 36.132812 -44.023438 36.203125 -44.023438 36.269531 -44.089844 C 36.335938 -44.089844 36.335938 -44.222656 36.335938 -44.292969 L 36.335938 -46.851562 C 36.335938 -46.851562 36.335938 -46.921875 36.335938 -46.921875 C 36.335938 -46.921875 36.335938 -46.921875 36.335938 -46.988281 Z M 36.335938 -46.988281 "/></g></g></g><g fill="#000000" fill-opacity="1"><g transform="translate(43.502726, 256.877006)"><g><path d="M 41.191406 -0.203125 C 40.988281 -0.269531 40.785156 -0.40625 40.652344 -0.605469 L 23.054688 -46.988281 C 23.054688 -47.054688 22.921875 -47.191406 22.851562 -47.191406 L 18.945312 -47.191406 C 18.808594 -47.191406 18.671875 -47.054688 18.671875 -46.921875 C 18.671875 -46.71875 18.808594 -46.652344 18.945312 -46.652344 C 19.144531 -46.582031 19.347656 -46.449219 19.414062 -46.246094 L 24.203125 -33.707031 C 23.527344 -34.382812 22.71875 -34.921875 21.84375 -35.257812 C 18.539062 -36.539062 14.832031 -34.851562 13.550781 -31.550781 L 1.820312 -0.605469 C 1.753906 -0.40625 1.550781 -0.269531 1.28125 -0.203125 C 1.144531 -0.203125 1.078125 -0.136719 1.078125 0 C 1.078125 0.203125 1.144531 0.269531 1.28125 0.269531 L 2.425781 0.269531 C 2.5625 0.269531 2.695312 0.203125 2.695312 0 C 2.695312 -0.136719 2.5625 -0.203125 2.425781 -0.203125 C 2.425781 -0.203125 2.359375 -0.269531 2.292969 -0.269531 C 2.292969 -0.335938 2.292969 -0.40625 2.359375 -0.40625 L 10.515625 -21.976562 C 10.585938 -18.203125 13.683594 -15.234375 17.460938 -15.167969 C 18.539062 -15.234375 19.484375 -15.4375 20.492188 -15.84375 C 21.574219 -16.246094 22.71875 -16.449219 23.863281 -16.449219 C 27.84375 -16.449219 31.347656 -14.15625 32.964844 -10.515625 L 36.808594 -0.40625 C 36.875 -0.40625 36.875 -0.335938 36.808594 -0.269531 C 36.808594 -0.269531 36.742188 -0.203125 36.742188 -0.203125 C 36.605469 -0.203125 36.472656 -0.136719 36.472656 0.0664062 C 36.472656 0.203125 36.605469 0.269531 36.742188 0.269531 L 41.191406 0.269531 C 41.324219 0.269531 41.460938 0.203125 41.460938 0.0664062 C 41.460938 -0.136719 41.324219 -0.203125 41.191406 -0.203125 Z M 23.863281 -16.988281 C 22.652344 -16.988281 21.4375 -16.785156 20.292969 -16.3125 C 19.414062 -15.976562 18.472656 -15.773438 17.460938 -15.707031 C 13.953125 -15.707031 11.054688 -18.605469 11.054688 -22.179688 C 11.054688 -22.988281 11.191406 -23.730469 11.460938 -24.472656 L 14.089844 -31.347656 C 14.089844 -31.347656 14.089844 -31.414062 14.089844 -31.414062 C 15.234375 -34.382812 18.605469 -35.933594 21.640625 -34.785156 C 23.257812 -34.179688 24.472656 -32.898438 25.078125 -31.347656 C 25.078125 -31.28125 25.078125 -31.28125 25.144531 -31.210938 L 32.023438 -13.144531 C 30 -15.574219 27.03125 -16.988281 23.863281 -16.988281 Z M 23.863281 -16.988281 "/></g></g></g><g fill="#000000" fill-opacity="1"><g transform="translate(86.105616, 256.877006)"><g><path d="M 37.550781 -47.121094 L 36.472656 -47.121094 C 36.335938 -47.121094 36.203125 -47.054688 36.203125 -46.921875 C 36.203125 -46.71875 36.335938 -46.652344 36.472656 -46.652344 C 36.605469 -46.652344 36.742188 -46.515625 36.742188 -46.3125 L 36.742188 -4.042969 L 9.035156 -47.054688 C 9.035156 -47.121094 8.898438 -47.121094 8.832031 -47.121094 L 5.125 -47.121094 C 4.988281 -47.121094 4.921875 -47.121094 4.855469 -46.988281 C 4.855469 -46.921875 4.855469 -46.851562 4.855469 -46.71875 L 12.808594 -34.382812 C 12 -34.851562 11.054688 -35.054688 10.179688 -35.054688 C 7.214844 -35.054688 4.855469 -32.695312 4.855469 -29.730469 L 4.855469 -0.539062 C 4.855469 -0.335938 4.71875 -0.203125 4.515625 -0.203125 C 4.382812 -0.203125 4.316406 -0.136719 4.316406 0.0664062 C 4.316406 0.203125 4.382812 0.269531 4.515625 0.269531 L 5.664062 0.269531 C 5.796875 0.269531 5.933594 0.203125 5.933594 0.0664062 C 5.933594 -0.136719 5.796875 -0.203125 5.664062 -0.203125 C 5.527344 -0.203125 5.394531 -0.335938 5.394531 -0.539062 L 5.394531 -29.730469 C 5.394531 -32.359375 7.484375 -34.515625 10.179688 -34.515625 C 11.796875 -34.515625 13.078125 -33.910156 13.886719 -32.761719 L 35.121094 0.203125 C 35.121094 0.269531 35.257812 0.269531 35.324219 0.269531 L 37.011719 0.269531 C 37.144531 0.269531 37.28125 0.203125 37.28125 0.0664062 L 37.28125 -46.3125 C 37.28125 -46.515625 37.414062 -46.652344 37.550781 -46.652344 C 37.753906 -46.652344 37.820312 -46.71875 37.820312 -46.921875 C 37.820312 -47.054688 37.753906 -47.121094 37.550781 -47.121094 Z M 37.550781 -47.121094 "/></g></g></g><g fill="#000000" fill-opacity="1"><g transform="translate(128.843323, 256.877006)"><g><path d="M 35.730469 -47.121094 C 35.59375 -47.191406 35.460938 -47.121094 35.390625 -46.988281 L 20.15625 -18.132812 L 17.054688 -24.066406 L 4.921875 -46.988281 C 4.921875 -47.121094 4.785156 -47.121094 4.71875 -47.121094 L 1.214844 -47.121094 C 1.144531 -47.121094 1.078125 -47.121094 1.078125 -47.121094 C 1.011719 -47.054688 0.945312 -47.054688 0.945312 -46.988281 C 0.875 -46.921875 0.875 -46.785156 0.945312 -46.71875 L 16.582031 -17.125 L 16.582031 0.0664062 C 16.582031 0.203125 16.652344 0.335938 16.855469 0.335938 L 19.953125 0.335938 C 20.089844 0.335938 20.222656 0.203125 20.222656 0.0664062 L 20.222656 -17.125 L 35.863281 -46.785156 C 35.863281 -46.851562 35.933594 -46.921875 35.863281 -46.988281 C 35.863281 -47.054688 35.796875 -47.121094 35.730469 -47.121094 Z M 35.730469 -47.121094 "/></g></g></g><g fill="#000000" fill-opacity="1"><g transform="translate(165.716396, 256.877006)"><g><path d="M 6.945312 -46.449219 C 6.472656 -46.921875 5.933594 -47.121094 5.324219 -47.121094 C 4.71875 -47.121094 4.179688 -46.921875 3.707031 -46.449219 C 3.304688 -46.042969 3.035156 -45.503906 3.101562 -44.898438 C 3.035156 -44.292969 3.304688 -43.683594 3.707031 -43.28125 C 4.179688 -42.875 4.71875 -42.605469 5.324219 -42.605469 C 5.394531 -42.605469 5.460938 -42.605469 5.527344 -42.605469 L 4.382812 -41.460938 C 4.316406 -41.390625 4.246094 -41.324219 4.246094 -41.257812 C 4.246094 -41.191406 4.316406 -41.121094 4.382812 -41.054688 C 4.382812 -41.054688 4.449219 -40.988281 4.515625 -40.988281 C 4.585938 -40.988281 4.652344 -41.054688 4.71875 -41.054688 L 6.945312 -43.28125 C 7.820312 -44.15625 7.820312 -45.570312 6.945312 -46.449219 Z M 6.945312 -46.449219 "/></g></g></g><g fill="#000000" fill-opacity="1"><g transform="translate(176.501937, 256.877006)"><g><path d="M 21.304688 -47.796875 C 11.257812 -47.796875 3.101562 -42.402344 3.101562 -35.796875 C 3.101562 -32.023438 5.730469 -28.515625 10.3125 -26.222656 L 29.664062 -16.449219 C 33.167969 -14.628906 35.191406 -11.933594 35.191406 -8.964844 C 35.191406 -3.773438 28.71875 0.539062 20.695312 0.539062 C 12.875 0.539062 6.40625 -3.640625 6.203125 -8.765625 C 6.132812 -8.832031 6.132812 -8.898438 6.066406 -8.964844 C 6 -8.964844 5.933594 -9.035156 5.863281 -8.964844 L 3.234375 -8.5625 C 3.167969 -8.5625 3.101562 -8.496094 3.035156 -8.425781 C 2.964844 -8.359375 2.964844 -8.292969 3.035156 -8.222656 C 4.988281 -2.765625 12.203125 1.078125 20.695312 1.078125 C 30.671875 1.078125 38.832031 -4.316406 38.832031 -10.988281 C 38.832031 -14.765625 36.203125 -18.269531 31.683594 -20.5625 L 12.335938 -30.335938 C 8.765625 -32.15625 6.742188 -34.851562 6.742188 -37.753906 C 6.742188 -43.011719 13.28125 -47.324219 21.304688 -47.324219 C 29.121094 -47.324219 35.59375 -43.144531 35.796875 -38.023438 C 35.796875 -37.953125 35.863281 -37.886719 35.933594 -37.820312 C 35.933594 -37.753906 36.066406 -37.753906 36.132812 -37.753906 L 38.761719 -38.222656 C 38.832031 -38.222656 38.898438 -38.292969 38.964844 -38.359375 C 38.964844 -38.425781 38.964844 -38.492188 38.964844 -38.5625 C 37.011719 -44.023438 29.730469 -47.796875 21.304688 -47.796875 Z M 21.304688 -47.796875 "/></g></g></g><g fill="#000000" fill-opacity="1"><g transform="translate(376.498138, 256.862493)"><g><path d="M 41.398438 -46.65625 C 41.53125 -46.65625 41.667969 -46.722656 41.667969 -46.925781 C 41.667969 -47.0625 41.53125 -47.128906 41.398438 -47.128906 L 37.148438 -47.128906 C 37.015625 -47.128906 36.878906 -47.0625 36.878906 -46.925781 C 36.878906 -46.722656 37.015625 -46.65625 37.148438 -46.65625 C 37.285156 -46.65625 37.417969 -46.523438 37.417969 -46.320312 L 37.417969 -22.183594 C 36.070312 -26.023438 32.429688 -28.65625 28.316406 -28.65625 C 25.554688 -28.65625 22.992188 -27.441406 21.101562 -25.417969 L 21.101562 -25.351562 C 19.824219 -23.800781 17.867188 -22.921875 15.84375 -22.921875 C 12.070312 -22.921875 9.035156 -25.957031 9.035156 -29.734375 L 9.035156 -46.320312 C 9.035156 -46.523438 9.167969 -46.65625 9.304688 -46.65625 C 9.507812 -46.65625 9.574219 -46.722656 9.574219 -46.925781 C 9.574219 -47.0625 9.507812 -47.128906 9.304688 -47.128906 L 5.058594 -47.128906 C 4.921875 -47.128906 4.855469 -47.0625 4.855469 -46.925781 C 4.855469 -46.722656 4.921875 -46.65625 5.058594 -46.65625 C 5.257812 -46.65625 5.394531 -46.523438 5.394531 -46.320312 L 5.394531 -0.539062 C 5.394531 -0.335938 5.257812 -0.203125 5.058594 -0.203125 C 4.921875 -0.203125 4.855469 -0.136719 4.855469 0.0664062 C 4.855469 0.203125 4.921875 0.335938 5.058594 0.335938 L 9.304688 0.335938 C 9.507812 0.335938 9.574219 0.203125 9.574219 0.0664062 C 9.574219 -0.136719 9.507812 -0.203125 9.304688 -0.203125 C 9.167969 -0.203125 9.035156 -0.335938 9.035156 -0.539062 L 9.035156 -27.035156 C 10.179688 -24.203125 12.878906 -22.382812 15.84375 -22.382812 C 18.070312 -22.382812 20.09375 -23.328125 21.507812 -25.015625 C 23.261719 -26.96875 25.753906 -28.117188 28.316406 -28.117188 C 33.375 -28.117188 37.417969 -24.003906 37.417969 -19.011719 L 37.417969 -0.539062 C 37.417969 -0.335938 37.285156 -0.203125 37.148438 -0.203125 C 37.015625 -0.203125 36.878906 -0.136719 36.878906 0.0664062 C 36.878906 0.203125 37.015625 0.335938 37.148438 0.335938 L 41.398438 0.335938 C 41.53125 0.335938 41.667969 0.203125 41.667969 0.0664062 C 41.667969 -0.136719 41.53125 -0.203125 41.398438 -0.203125 C 41.261719 -0.203125 41.128906 -0.335938 41.128906 -0.539062 L 41.128906 -46.320312 C 41.128906 -46.386719 41.128906 -46.523438 41.195312 -46.523438 C 41.261719 -46.589844 41.332031 -46.65625 41.398438 -46.65625 Z M 41.398438 -46.65625 "/></g></g></g><g fill="#000000" fill-opacity="1"><g transform="translate(423.087258, 256.862493)"><g><path d="M 41.195312 -0.203125 C 40.992188 -0.269531 40.789062 -0.40625 40.65625 -0.605469 L 23.058594 -46.992188 C 23.058594 -47.0625 22.921875 -47.195312 22.855469 -47.195312 L 18.945312 -47.195312 C 18.8125 -47.195312 18.675781 -47.0625 18.675781 -46.925781 C 18.675781 -46.722656 18.8125 -46.65625 18.945312 -46.65625 C 19.148438 -46.589844 19.351562 -46.453125 19.417969 -46.253906 L 24.203125 -33.710938 C 23.53125 -34.386719 22.722656 -34.925781 21.84375 -35.261719 C 18.542969 -36.542969 14.832031 -34.859375 13.550781 -31.554688 L 1.820312 -0.605469 C 1.753906 -0.40625 1.550781 -0.269531 1.28125 -0.203125 C 1.144531 -0.203125 1.078125 -0.136719 1.078125 0 C 1.078125 0.203125 1.144531 0.269531 1.28125 0.269531 L 2.425781 0.269531 C 2.5625 0.269531 2.695312 0.203125 2.695312 0 C 2.695312 -0.136719 2.5625 -0.203125 2.425781 -0.203125 C 2.425781 -0.203125 2.359375 -0.269531 2.292969 -0.269531 C 2.292969 -0.335938 2.292969 -0.40625 2.359375 -0.40625 L 10.519531 -21.980469 C 10.585938 -18.203125 13.6875 -15.238281 17.460938 -15.171875 C 18.542969 -15.238281 19.484375 -15.441406 20.496094 -15.84375 C 21.574219 -16.25 22.722656 -16.453125 23.867188 -16.453125 C 27.84375 -16.453125 31.351562 -14.160156 32.96875 -10.519531 L 36.8125 -0.40625 C 36.878906 -0.40625 36.878906 -0.335938 36.8125 -0.269531 C 36.8125 -0.269531 36.746094 -0.203125 36.746094 -0.203125 C 36.609375 -0.203125 36.476562 -0.136719 36.476562 0.0664062 C 36.476562 0.203125 36.609375 0.269531 36.746094 0.269531 L 41.195312 0.269531 C 41.332031 0.269531 41.464844 0.203125 41.464844 0.0664062 C 41.464844 -0.136719 41.332031 -0.203125 41.195312 -0.203125 Z M 23.867188 -16.992188 C 22.652344 -16.992188 21.441406 -16.789062 20.292969 -16.316406 C 19.417969 -15.980469 18.472656 -15.777344 17.460938 -15.710938 C 13.957031 -15.710938 11.058594 -18.609375 11.058594 -22.183594 C 11.058594 -22.992188 11.191406 -23.734375 11.460938 -24.472656 L 14.089844 -31.351562 C 14.089844 -31.351562 14.089844 -31.417969 14.089844 -31.417969 C 15.238281 -34.386719 18.609375 -35.9375 21.644531 -34.789062 C 23.261719 -34.183594 24.472656 -32.902344 25.082031 -31.351562 C 25.082031 -31.285156 25.082031 -31.285156 25.148438 -31.214844 L 32.027344 -13.148438 C 30.003906 -15.574219 27.035156 -16.992188 23.867188 -16.992188 Z M 23.867188 -16.992188 "/></g></g></g><g fill="#000000" fill-opacity="1"><g transform="translate(465.698442, 256.862493)"><g><path d="M 9.304688 -46.65625 C 9.507812 -46.65625 9.574219 -46.722656 9.574219 -46.925781 C 9.574219 -47.0625 9.507812 -47.128906 9.304688 -47.128906 L 5.058594 -47.128906 C 4.921875 -47.128906 4.855469 -47.0625 4.855469 -46.925781 C 4.855469 -46.722656 4.921875 -46.65625 5.058594 -46.65625 C 5.257812 -46.65625 5.394531 -46.523438 5.394531 -46.320312 L 5.394531 -0.539062 C 5.394531 -0.472656 5.328125 -0.335938 5.257812 -0.335938 C 5.257812 -0.269531 5.191406 -0.203125 5.058594 -0.203125 C 4.921875 -0.203125 4.855469 -0.136719 4.855469 0.0664062 C 4.855469 0.203125 4.921875 0.335938 5.058594 0.335938 L 9.304688 0.335938 C 9.507812 0.335938 9.574219 0.203125 9.574219 0.0664062 C 9.574219 -0.136719 9.507812 -0.203125 9.304688 -0.203125 C 9.167969 -0.203125 9.035156 -0.335938 9.035156 -0.539062 L 9.035156 -46.320312 C 9.035156 -46.523438 9.167969 -46.65625 9.304688 -46.65625 Z M 9.304688 -46.65625 "/></g></g></g><g fill="#000000" fill-opacity="1"><g transform="translate(480.194338, 256.862493)"><g><path d="M 24.40625 -24.003906 C 24.472656 -24.003906 24.472656 -24.003906 24.472656 -24.003906 L 26.429688 -24.003906 C 33.980469 -24.003906 40.117188 -29.195312 40.117188 -35.597656 C 40.117188 -41.9375 33.980469 -47.128906 26.429688 -47.128906 L 12.40625 -47.128906 C 12.40625 -47.128906 12.40625 -47.195312 12.40625 -47.195312 L 5.597656 -47.195312 C 5.460938 -47.195312 5.394531 -47.0625 5.394531 -46.925781 L 5.394531 0.0664062 C 5.328125 0.136719 5.394531 0.203125 5.460938 0.269531 C 5.460938 0.269531 5.527344 0.335938 5.597656 0.335938 L 8.765625 0.335938 C 8.898438 0.335938 9.035156 0.203125 9.035156 0.0664062 L 9.035156 -12.203125 C 9.035156 -18.203125 13.550781 -23.261719 19.621094 -23.933594 L 35.128906 0.203125 C 35.195312 0.269531 35.261719 0.269531 35.328125 0.269531 L 39.105469 0.269531 C 39.171875 0.269531 39.238281 0.269531 39.308594 0.136719 C 39.375 0.0664062 39.375 0 39.308594 -0.136719 L 23.933594 -24.003906 Z M 20.902344 -24.542969 C 20.496094 -24.542969 20.09375 -24.542969 19.6875 -24.472656 C 14.699219 -24.003906 10.449219 -20.5625 9.035156 -15.777344 L 9.035156 -43.285156 C 9.035156 -45.105469 10.519531 -46.589844 12.339844 -46.65625 L 24.40625 -46.589844 C 30.542969 -46.65625 35.53125 -41.734375 35.53125 -35.597656 C 35.53125 -29.464844 30.609375 -24.542969 24.472656 -24.542969 Z M 20.902344 -24.542969 "/></g></g></g><g fill="#000000" fill-opacity="1"><g transform="translate(128.219496, 301.584043)"><g><path d="M 9.824219 -18.71875 C 12.453125 -18.71875 15.585938 -16.488281 16.363281 -14.082031 L 16.9375 -14.433594 L 16.9375 -14.410156 L 17.492188 -14.757812 C 16.664062 -17.390625 12.980469 -19.847656 9.824219 -19.847656 C 5.636719 -19.847656 1.777344 -14.507812 1.777344 -9.796875 C 1.777344 -5.085938 5.636719 0.25 9.824219 0.25 C 13.28125 0.25 16.964844 -2.15625 17.492188 -4.761719 L 16.363281 -5.4375 C 15.863281 -3.058594 12.730469 -0.878906 9.824219 -0.878906 C 6.414062 -0.878906 3.257812 -5.613281 3.257812 -9.796875 C 3.257812 -13.957031 6.414062 -18.71875 9.824219 -18.71875 Z M 9.824219 -18.71875 "/></g></g><g transform="translate(146.211202, 301.584043)"><g><path d="M 14.082031 -5.738281 L 16.3125 -0.125 C 16.3125 -0.125 16.3125 -0.101562 16.335938 -0.0742188 L 16.335938 -0.0507812 C 16.335938 0 16.363281 0.0234375 16.363281 0.0234375 L 17.839844 0.0234375 L 10.046875 -19.570312 L 8.570312 -19.570312 C 8.542969 -19.546875 8.542969 -19.519531 8.542969 -19.496094 L 0.726562 0.0234375 L 2.207031 0.0234375 C 2.207031 0.0234375 2.230469 0 2.230469 -0.0507812 L 2.230469 -0.0742188 C 2.230469 -0.101562 2.253906 -0.125 2.253906 -0.125 L 4.484375 -5.738281 Z M 4.886719 -6.789062 L 9.273438 -17.917969 L 13.65625 -6.789062 Z M 4.886719 -6.789062 "/></g></g><g transform="translate(164.278081, 301.584043)"><g><path d="M 5.011719 0 L 8.292969 0 C 12.578125 0 15.160156 -2.230469 15.160156 -5.914062 C 15.160156 -8.167969 12.929688 -10.324219 10.25 -10.851562 C 12.65625 -11.375 14.558594 -12.855469 14.558594 -14.382812 C 14.558594 -17.640625 11.976562 -19.59375 7.71875 -19.59375 L 1.753906 -19.59375 L 1.753906 0 L 3.132812 0 L 3.132812 -18.519531 L 7.769531 -18.519531 C 11.125 -18.519531 13.128906 -16.9375 13.128906 -14.28125 C 13.128906 -12.679688 10.550781 -11.199219 7.742188 -11.199219 L 6.488281 -11.199219 L 6.488281 -10.171875 L 8.144531 -10.171875 C 11.027344 -10.171875 13.683594 -8.195312 13.683594 -6.0625 C 13.683594 -2.957031 11.5 -1.078125 7.917969 -1.078125 L 5.011719 -1.078125 Z M 5.011719 0 "/></g></g><g transform="translate(181.167231, 301.584043)"><g><path d="M 12.453125 -9.570312 L 12.453125 -10.648438 L 4.007812 -10.648438 L 4.007812 -18.46875 L 12.953125 -18.46875 L 12.953125 -19.59375 L 2.632812 -19.59375 L 2.632812 0 L 13.332031 0 L 13.332031 -1.128906 L 4.007812 -1.128906 L 4.007812 -9.570312 Z M 12.453125 -9.570312 "/></g></g><g transform="translate(195.751037, 301.584043)"><g><path d="M 11.601562 -1.128906 L 3.53125 -1.128906 L 3.53125 -19.59375 L 2.15625 -19.59375 L 2.15625 0 L 11.601562 0 Z M 11.601562 -1.128906 "/></g></g><g transform="translate(208.104673, 301.584043)"><g><path d="M 10.425781 -19.847656 C 6.214844 -19.847656 1.90625 -14.757812 1.90625 -9.796875 C 1.90625 -4.5625 5.988281 0.25 10.425781 0.25 C 14.859375 0.25 18.945312 -4.5625 18.945312 -9.796875 C 18.945312 -14.757812 14.632812 -19.847656 10.425781 -19.847656 Z M 10.425781 -18.71875 C 13.90625 -18.71875 17.464844 -14.207031 17.464844 -9.796875 C 17.464844 -5.160156 14.082031 -0.878906 10.425781 -0.878906 C 6.765625 -0.878906 3.382812 -5.160156 3.382812 -9.796875 C 3.382812 -14.207031 6.941406 -18.71875 10.425781 -18.71875 Z M 10.425781 -18.71875 "/></g></g><g transform="translate(228.401722, 301.584043)"><g><path d="M 7.515625 0.25 C 10.550781 0.25 12.828125 -2.503906 12.828125 -5.460938 C 12.828125 -7.816406 10.375 -10.097656 7.117188 -10.773438 C 4.660156 -11.300781 2.832031 -12.855469 2.832031 -14.433594 C 2.832031 -16.613281 4.460938 -18.617188 6.238281 -18.617188 C 7.417969 -18.617188 9.320312 -17.390625 10.851562 -14.984375 L 11.925781 -15.761719 C 10.171875 -18.46875 7.816406 -19.847656 6.238281 -19.847656 C 3.734375 -19.847656 1.402344 -17.191406 1.402344 -14.28125 C 1.402344 -12.128906 3.683594 -10.023438 6.742188 -9.371094 C 9.445312 -8.820312 11.453125 -7.117188 11.453125 -5.414062 C 11.453125 -3.105469 9.773438 -0.953125 7.515625 -0.953125 C 5.488281 -0.953125 3.257812 -2.503906 2.582031 -5.511719 L 1.277344 -4.910156 C 1.304688 -4.734375 1.351562 -4.5625 1.402344 -4.410156 C 2.304688 -1.328125 4.988281 0.25 7.515625 0.25 Z M 7.515625 0.25 "/></g></g><g transform="translate(242.108495, 301.584043)"><g/></g><g transform="translate(248.247726, 301.584043)"><g><path d="M 14.082031 -5.738281 L 16.3125 -0.125 C 16.3125 -0.125 16.3125 -0.101562 16.335938 -0.0742188 L 16.335938 -0.0507812 C 16.335938 0 16.363281 0.0234375 16.363281 0.0234375 L 17.839844 0.0234375 L 10.046875 -19.570312 L 8.570312 -19.570312 C 8.542969 -19.546875 8.542969 -19.519531 8.542969 -19.496094 L 0.726562 0.0234375 L 2.207031 0.0234375 C 2.207031 0.0234375 2.230469 0 2.230469 -0.0507812 L 2.230469 -0.0742188 C 2.230469 -0.101562 2.253906 -0.125 2.253906 -0.125 L 4.484375 -5.738281 Z M 4.886719 -6.789062 L 9.273438 -17.917969 L 13.65625 -6.789062 Z M 4.886719 -6.789062 "/></g></g><g transform="translate(266.314606, 301.584043)"><g><path d="M 3.832031 -19.59375 L 2.457031 -19.59375 L 2.457031 -7.644531 C 2.457031 -3.132812 5.011719 0.25 8.445312 0.25 C 11.851562 0.25 14.410156 -3.132812 14.410156 -7.644531 L 14.410156 -19.59375 L 13.03125 -19.59375 L 13.03125 -7.894531 C 13.03125 -3.960938 11.050781 -1.027344 8.445312 -1.027344 C 5.8125 -1.027344 3.832031 -3.960938 3.832031 -7.894531 Z M 3.832031 -19.59375 "/></g></g><g transform="translate(282.702594, 301.584043)"><g><path d="M 8.09375 0 C 8.117188 0 8.117188 -0.0234375 8.09375 -0.0742188 C 8.117188 -0.101562 8.117188 -0.125 8.09375 -0.125 L 8.09375 -18.46875 L 14.582031 -18.46875 L 14.582031 -19.59375 L 0.25 -19.59375 L 0.25 -18.46875 L 6.714844 -18.46875 L 6.714844 0 Z M 8.09375 0 "/></g></g><g transform="translate(297.511922, 301.584043)"><g><path d="M 12.453125 -9.570312 L 12.453125 -10.648438 L 4.007812 -10.648438 L 4.007812 -18.46875 L 12.953125 -18.46875 L 12.953125 -19.59375 L 2.632812 -19.59375 L 2.632812 0 L 13.332031 0 L 13.332031 -1.128906 L 4.007812 -1.128906 L 4.007812 -9.570312 Z M 7.792969 -24.382812 L 10.898438 -21.601562 L 12.027344 -21.601562 L 8.417969 -25.359375 L 7.167969 -25.359375 L 3.558594 -21.601562 L 4.6875 -21.601562 Z M 7.792969 -24.382812 "/></g></g><g transform="translate(312.095728, 301.584043)"><g><path d="M 4.007812 -16.914062 L 12.679688 0 L 14.609375 0 L 14.609375 -19.59375 L 13.230469 -19.59375 L 13.230469 -1.90625 L 4.160156 -19.59375 L 2.632812 -19.59375 L 2.632812 0 L 4.007812 0 Z M 4.007812 -16.914062 "/></g></g><g transform="translate(328.809471, 301.584043)"><g><path d="M 8.09375 0 C 8.117188 0 8.117188 -0.0234375 8.09375 -0.0742188 C 8.117188 -0.101562 8.117188 -0.125 8.09375 -0.125 L 8.09375 -18.46875 L 14.582031 -18.46875 L 14.582031 -19.59375 L 0.25 -19.59375 L 0.25 -18.46875 L 6.714844 -18.46875 L 6.714844 0 Z M 8.09375 0 "/></g></g><g transform="translate(343.6188, 301.584043)"><g><path d="M 2.15625 0 L 3.53125 0 L 3.53125 -19.59375 L 2.15625 -19.59375 Z M 2.15625 0 "/></g></g><g transform="translate(349.281927, 301.584043)"><g><path d="M 9.824219 -18.71875 C 12.453125 -18.71875 15.585938 -16.488281 16.363281 -14.082031 L 16.9375 -14.433594 L 16.9375 -14.410156 L 17.492188 -14.757812 C 16.664062 -17.390625 12.980469 -19.847656 9.824219 -19.847656 C 5.636719 -19.847656 1.777344 -14.507812 1.777344 -9.796875 C 1.777344 -5.085938 5.636719 0.25 9.824219 0.25 C 13.28125 0.25 16.964844 -2.15625 17.492188 -4.761719 L 16.363281 -5.4375 C 15.863281 -3.058594 12.730469 -0.878906 9.824219 -0.878906 C 6.414062 -0.878906 3.257812 -5.613281 3.257812 -9.796875 C 3.257812 -13.957031 6.414062 -18.71875 9.824219 -18.71875 Z M 9.824219 -18.71875 "/></g></g><g transform="translate(367.273632, 301.584043)"><g><path d="M 10.425781 -19.847656 C 6.214844 -19.847656 1.90625 -14.757812 1.90625 -9.796875 C 1.90625 -4.5625 5.988281 0.25 10.425781 0.25 C 14.859375 0.25 18.945312 -4.5625 18.945312 -9.796875 C 18.945312 -14.757812 14.632812 -19.847656 10.425781 -19.847656 Z M 10.425781 -18.71875 C 13.90625 -18.71875 17.464844 -14.207031 17.464844 -9.796875 C 17.464844 -5.160156 14.082031 -0.878906 10.425781 -0.878906 C 6.765625 -0.878906 3.382812 -5.160156 3.382812 -9.796875 C 3.382812 -14.207031 6.941406 -18.71875 10.425781 -18.71875 Z M 10.425781 -18.71875 "/></g></g><g transform="translate(387.570682, 301.584043)"><g><path d="M 7.515625 0.25 C 10.550781 0.25 12.828125 -2.503906 12.828125 -5.460938 C 12.828125 -7.816406 10.375 -10.097656 7.117188 -10.773438 C 4.660156 -11.300781 2.832031 -12.855469 2.832031 -14.433594 C 2.832031 -16.613281 4.460938 -18.617188 6.238281 -18.617188 C 7.417969 -18.617188 9.320312 -17.390625 10.851562 -14.984375 L 11.925781 -15.761719 C 10.171875 -18.46875 7.816406 -19.847656 6.238281 -19.847656 C 3.734375 -19.847656 1.402344 -17.191406 1.402344 -14.28125 C 1.402344 -12.128906 3.683594 -10.023438 6.742188 -9.371094 C 9.445312 -8.820312 11.453125 -7.117188 11.453125 -5.414062 C 11.453125 -3.105469 9.773438 -0.953125 7.515625 -0.953125 C 5.488281 -0.953125 3.257812 -2.503906 2.582031 -5.511719 L 1.277344 -4.910156 C 1.304688 -4.734375 1.351562 -4.5625 1.402344 -4.410156 C 2.304688 -1.328125 4.988281 0.25 7.515625 0.25 Z M 7.515625 0.25 "/></g></g></g><path stroke-linecap="butt" transform="matrix(0.748941, 0, 0, 0.748941, 437.723957, 286.508362)" fill="none" stroke-linejoin="miter" d="M -0.0017369 1.000681 L 114.055191 1.000681 " stroke="#000000" stroke-width="2" stroke-opacity="1" stroke-miterlimit="4"/></svg>