<svg xmlns="http://www.w3.org/2000/svg" xmlns:xlink="http://www.w3.org/1999/xlink" width="100" zoomAndPan="magnify" viewBox="0 0 75 30.000001" height="40" preserveAspectRatio="xMidYMid meet" version="1.0"><defs><g/><clipPath id="cea572aebe"><path d="M 14 5 L 30.242188 5 L 30.242188 14 L 14 14 Z M 14 5 " clip-rule="nonzero"/></clipPath><clipPath id="0372142223"><path d="M 1.210938 11 L 16 11 L 16 19 L 1.210938 19 Z M 1.210938 11 " clip-rule="nonzero"/></clipPath></defs><g clip-path="url(#cea572aebe)"><path fill="#cccccc" d="M 29.234375 5.15625 L 14.539062 12.441406 L 14.957031 13.390625 L 16.082031 12.917969 L 16.554688 13.390625 C 16.851562 13.746094 17.742188 14.042969 18.332031 13.6875 L 29.828125 6.339844 C 30.125 6.160156 30.242188 5.804688 30.125 5.449219 C 30.003906 5.15625 29.589844 4.976562 29.234375 5.15625 Z M 29.234375 5.15625 " fill-opacity="1" fill-rule="nonzero"/></g><path fill="#d56455" d="M 15.371094 13.273438 L 14.777344 12.144531 C 14.777344 12.085938 14.660156 12.027344 14.660156 12.027344 L 14.421875 11.789062 L 14.421875 11.910156 C 14.304688 11.851562 14.125 11.910156 14.007812 11.96875 C 11.222656 13.566406 9.445312 12.441406 9.445312 12.441406 C 9.445312 12.441406 6.660156 10.546875 4.113281 11.910156 C 2.277344 12.855469 1.507812 15.167969 2.453125 17.0625 C 3.34375 18.839844 5.535156 19.492188 7.253906 18.546875 L 15.191406 13.984375 C 15.371094 13.804688 15.488281 13.507812 15.371094 13.273438 Z M 8.140625 16.53125 C 7.074219 17.773438 5.238281 17.953125 4.054688 17.0625 C 2.929688 16.234375 2.808594 14.695312 3.640625 13.566406 C 4.527344 12.382812 6.246094 11.96875 7.488281 12.679688 C 8.914062 13.507812 9.207031 15.226562 8.140625 16.53125 Z M 8.140625 16.53125 " fill-opacity="1" fill-rule="nonzero"/><path fill="#5e17eb" d="M 27.515625 19.789062 C 25.207031 14.871094 26.628906 10.546875 25.265625 7.050781 C 24.140625 4.089844 19.753906 3.96875 18.332031 4.027344 C 18.035156 4.027344 13.058594 4.027344 13.058594 4.027344 C 13.058594 4.027344 14.421875 4.027344 19.457031 5.804688 C 24.316406 7.582031 21.886719 11.671875 22.71875 15.699219 C 23.546875 19.613281 26.746094 22.574219 26.746094 22.574219 C 24.730469 19.316406 24.671875 15.640625 24.671875 15.640625 C 25.207031 18.722656 27.515625 19.789062 27.515625 19.789062 Z M 27.515625 19.789062 " fill-opacity="1" fill-rule="nonzero"/><path fill="#e6e6e6" d="M 25.265625 1.183594 L 17.917969 15.820312 L 16.96875 15.40625 L 17.445312 14.277344 C 17.089844 13.863281 16.792969 13.746094 16.671875 13.332031 L 16.554688 12.976562 C 16.4375 12.679688 16.496094 12.324219 16.671875 12.027344 L 24.019531 0.535156 C 24.199219 0.238281 24.554688 0.117188 24.910156 0.238281 C 25.265625 0.355469 25.441406 0.828125 25.265625 1.183594 Z M 25.265625 1.183594 " fill-opacity="1" fill-rule="nonzero"/><path fill="#d56455" d="M 17.976562 20.914062 C 17.976562 20.914062 16.851562 19.136719 18.453125 16.351562 C 18.570312 16.117188 18.511719 15.878906 18.390625 15.699219 L 18.15625 15.464844 L 18.15625 15.523438 C 17.679688 15.34375 16.851562 14.574219 16.496094 15.226562 L 11.875 23.167969 C 10.867188 24.886719 11.578125 27.078125 13.355469 27.964844 C 15.25 28.914062 17.503906 28.144531 18.511719 26.308594 C 19.8125 23.757812 17.976562 20.914062 17.976562 20.914062 Z M 16.792969 26.722656 C 15.667969 27.550781 14.125 27.433594 13.296875 26.308594 C 12.40625 25.121094 12.585938 23.285156 13.828125 22.21875 C 15.132812 21.152344 16.851562 21.449219 17.621094 22.8125 C 18.390625 24.171875 17.976562 25.890625 16.792969 26.722656 Z M 16.792969 26.722656 " fill-opacity="1" fill-rule="nonzero"/><g clip-path="url(#0372142223)"><path fill="#ed7161" d="M 2.15625 16.769531 C 3.046875 18.546875 5.238281 19.195312 6.957031 18.25 L 14.835938 13.6875 C 15.074219 13.566406 15.191406 13.210938 15.074219 12.976562 L 14.539062 11.910156 C 14.421875 11.613281 14.066406 11.554688 13.769531 11.671875 C 10.984375 13.273438 9.207031 12.144531 9.207031 12.144531 C 9.207031 12.144531 6.363281 10.25 3.816406 11.613281 C 1.980469 12.5625 1.210938 14.8125 2.15625 16.769531 Z M 3.34375 13.273438 C 4.230469 12.085938 5.949219 11.671875 7.195312 12.382812 C 8.554688 13.152344 8.914062 14.929688 7.785156 16.175781 C 6.71875 17.417969 4.882812 17.597656 3.699219 16.707031 C 2.632812 15.9375 2.511719 14.398438 3.34375 13.273438 Z M 3.34375 13.273438 " fill-opacity="1" fill-rule="nonzero"/></g><path fill="#ed7161" d="M 18.214844 26.011719 C 19.578125 23.460938 17.679688 20.617188 17.679688 20.617188 C 17.679688 20.617188 16.554688 18.839844 18.15625 16.054688 C 18.570312 15.34375 17.324219 15.050781 16.851562 14.753906 C 16.613281 14.632812 16.257812 14.695312 16.140625 14.988281 L 11.578125 22.929688 C 10.570312 24.648438 11.28125 26.839844 13.058594 27.730469 C 15.015625 28.617188 17.265625 27.847656 18.214844 26.011719 Z M 13.058594 26.070312 C 12.171875 24.886719 12.347656 23.046875 13.59375 21.980469 C 14.894531 20.914062 16.613281 21.210938 17.386719 22.574219 C 18.097656 23.878906 17.679688 25.535156 16.496094 26.425781 C 15.429688 27.3125 13.890625 27.195312 13.058594 26.070312 Z M 13.058594 26.070312 " fill-opacity="1" fill-rule="nonzero"/><path fill="#cccccc" d="M 18.632812 12.460938 C 18.632812 12.625 18.574219 12.765625 18.460938 12.882812 C 18.34375 12.996094 18.203125 13.054688 18.039062 13.054688 C 17.878906 13.054688 17.738281 12.996094 17.621094 12.882812 C 17.507812 12.765625 17.449219 12.625 17.449219 12.460938 C 17.449219 12.296875 17.507812 12.160156 17.621094 12.042969 C 17.738281 11.925781 17.878906 11.871094 18.039062 11.871094 C 18.203125 11.871094 18.34375 11.925781 18.460938 12.042969 C 18.574219 12.160156 18.632812 12.296875 18.632812 12.460938 Z M 18.632812 12.460938 " fill-opacity="1" fill-rule="nonzero"/><g fill="#000000" fill-opacity="1"><g transform="translate(30.241934, 16.629716)"><g><path d="M 0.140625 -0.171875 C 0.140625 -0.191406 0.140625 -0.207031 0.140625 -0.21875 L 1.46875 -4.53125 C 1.5 -4.625 1.582031 -4.671875 1.71875 -4.671875 C 1.851562 -4.671875 1.9375 -4.625 1.96875 -4.53125 L 3.28125 -0.21875 C 3.28125 -0.21875 3.28125 -0.210938 3.28125 -0.203125 C 3.289062 -0.191406 3.296875 -0.1875 3.296875 -0.1875 C 3.296875 -0.132812 3.265625 -0.0859375 3.203125 -0.046875 C 3.148438 -0.015625 3.09375 0 3.03125 0 C 2.957031 0 2.90625 -0.0351562 2.875 -0.109375 L 2.59375 -1.078125 L 0.828125 -1.078125 L 0.546875 -0.109375 C 0.523438 -0.0351562 0.46875 0 0.375 0 C 0.3125 0 0.253906 -0.015625 0.203125 -0.046875 C 0.160156 -0.078125 0.140625 -0.117188 0.140625 -0.171875 Z M 0.9375 -1.453125 L 2.484375 -1.453125 L 1.71875 -4 Z M 0.9375 -1.453125 "/></g></g></g><g fill="#000000" fill-opacity="1"><g transform="translate(33.665963, 16.629716)"><g><path d="M 0.46875 -1.3125 L 0.46875 -4.484375 C 0.46875 -4.585938 0.535156 -4.640625 0.671875 -4.640625 C 0.804688 -4.640625 0.875 -4.585938 0.875 -4.484375 L 0.875 -1.3125 C 0.875 -1 0.953125 -0.757812 1.109375 -0.59375 C 1.273438 -0.425781 1.503906 -0.34375 1.796875 -0.34375 C 2.085938 -0.34375 2.3125 -0.425781 2.46875 -0.59375 C 2.625 -0.757812 2.703125 -1 2.703125 -1.3125 L 2.703125 -4.484375 C 2.703125 -4.585938 2.769531 -4.640625 2.90625 -4.640625 C 3.050781 -4.640625 3.125 -4.585938 3.125 -4.484375 L 3.125 -1.3125 C 3.125 -0.84375 3 -0.5 2.75 -0.28125 C 2.507812 -0.0703125 2.1875 0.03125 1.78125 0.03125 C 1.382812 0.03125 1.066406 -0.0703125 0.828125 -0.28125 C 0.585938 -0.5 0.46875 -0.84375 0.46875 -1.3125 Z M 0.46875 -1.3125 "/></g></g></g><g fill="#000000" fill-opacity="1"><g transform="translate(37.254858, 16.629716)"><g><path d="M 0.09375 -4.4375 C 0.09375 -4.488281 0.101562 -4.535156 0.125 -4.578125 C 0.15625 -4.617188 0.195312 -4.640625 0.25 -4.640625 L 2.796875 -4.640625 C 2.847656 -4.640625 2.882812 -4.617188 2.90625 -4.578125 C 2.9375 -4.535156 2.953125 -4.492188 2.953125 -4.453125 C 2.953125 -4.390625 2.9375 -4.335938 2.90625 -4.296875 C 2.882812 -4.265625 2.847656 -4.25 2.796875 -4.25 L 1.734375 -4.25 L 1.734375 -0.171875 C 1.734375 -0.117188 1.710938 -0.078125 1.671875 -0.046875 C 1.628906 -0.015625 1.582031 0 1.53125 0 C 1.46875 0 1.414062 -0.015625 1.375 -0.046875 C 1.332031 -0.078125 1.3125 -0.117188 1.3125 -0.171875 L 1.3125 -4.25 L 0.25 -4.25 C 0.207031 -4.25 0.171875 -4.265625 0.140625 -4.296875 C 0.109375 -4.335938 0.09375 -4.382812 0.09375 -4.4375 Z M 0.09375 -4.4375 "/></g></g></g><g fill="#000000" fill-opacity="1"><g transform="translate(40.304779, 16.629716)"><g><path d="M 0.484375 -0.171875 L 0.484375 -4.484375 C 0.484375 -4.535156 0.5 -4.570312 0.53125 -4.59375 C 0.570312 -4.625 0.617188 -4.640625 0.671875 -4.640625 L 2.9375 -4.640625 C 3.039062 -4.640625 3.09375 -4.578125 3.09375 -4.453125 C 3.09375 -4.398438 3.078125 -4.351562 3.046875 -4.3125 C 3.015625 -4.269531 2.976562 -4.25 2.9375 -4.25 L 0.90625 -4.25 L 0.90625 -2.5 L 1.890625 -2.5 C 1.941406 -2.5 1.984375 -2.476562 2.015625 -2.4375 C 2.046875 -2.40625 2.0625 -2.363281 2.0625 -2.3125 C 2.0625 -2.195312 2.003906 -2.140625 1.890625 -2.140625 L 0.90625 -2.140625 L 0.90625 -0.390625 L 2.9375 -0.390625 C 2.976562 -0.390625 3.015625 -0.367188 3.046875 -0.328125 C 3.078125 -0.285156 3.09375 -0.238281 3.09375 -0.1875 C 3.09375 -0.0625 3.039062 0 2.9375 0 L 0.671875 0 C 0.617188 0 0.570312 -0.015625 0.53125 -0.046875 C 0.5 -0.078125 0.484375 -0.117188 0.484375 -0.171875 Z M 0.484375 -0.171875 "/></g></g></g><g fill="#000000" fill-opacity="1"><g transform="translate(43.525903, 16.629716)"><g><path d="M 0.484375 -0.171875 L 0.484375 -4.484375 C 0.484375 -4.585938 0.550781 -4.640625 0.6875 -4.640625 C 0.8125 -4.640625 0.921875 -4.539062 1.015625 -4.34375 L 2.734375 -0.96875 L 2.734375 -4.484375 C 2.734375 -4.585938 2.800781 -4.640625 2.9375 -4.640625 C 3.082031 -4.640625 3.15625 -4.585938 3.15625 -4.484375 L 3.15625 -0.171875 C 3.15625 -0.117188 3.132812 -0.078125 3.09375 -0.046875 C 3.050781 -0.015625 3 0 2.9375 0 C 2.832031 0 2.742188 -0.078125 2.671875 -0.234375 L 0.90625 -3.671875 L 0.90625 -0.171875 C 0.90625 -0.117188 0.882812 -0.078125 0.84375 -0.046875 C 0.800781 -0.015625 0.75 0 0.6875 0 C 0.632812 0 0.585938 -0.015625 0.546875 -0.046875 C 0.503906 -0.078125 0.484375 -0.117188 0.484375 -0.171875 Z M 0.484375 -0.171875 "/></g></g></g><g fill="#000000" fill-opacity="1"><g transform="translate(47.159183, 16.629716)"><g><path d="M 0.09375 -4.4375 C 0.09375 -4.488281 0.101562 -4.535156 0.125 -4.578125 C 0.15625 -4.617188 0.195312 -4.640625 0.25 -4.640625 L 2.796875 -4.640625 C 2.847656 -4.640625 2.882812 -4.617188 2.90625 -4.578125 C 2.9375 -4.535156 2.953125 -4.492188 2.953125 -4.453125 C 2.953125 -4.390625 2.9375 -4.335938 2.90625 -4.296875 C 2.882812 -4.265625 2.847656 -4.25 2.796875 -4.25 L 1.734375 -4.25 L 1.734375 -0.171875 C 1.734375 -0.117188 1.710938 -0.078125 1.671875 -0.046875 C 1.628906 -0.015625 1.582031 0 1.53125 0 C 1.46875 0 1.414062 -0.015625 1.375 -0.046875 C 1.332031 -0.078125 1.3125 -0.117188 1.3125 -0.171875 L 1.3125 -4.25 L 0.25 -4.25 C 0.207031 -4.25 0.171875 -4.265625 0.140625 -4.296875 C 0.109375 -4.335938 0.09375 -4.382812 0.09375 -4.4375 Z M 0.09375 -4.4375 "/></g></g></g><g fill="#000000" fill-opacity="1"><g transform="translate(50.209104, 16.629716)"><g><path d="M 0.484375 -0.171875 L 0.484375 -4.484375 C 0.484375 -4.585938 0.550781 -4.640625 0.6875 -4.640625 C 0.832031 -4.640625 0.90625 -4.585938 0.90625 -4.484375 L 0.90625 -0.171875 C 0.90625 -0.117188 0.882812 -0.078125 0.84375 -0.046875 C 0.800781 -0.015625 0.75 0 0.6875 0 C 0.632812 0 0.585938 -0.015625 0.546875 -0.046875 C 0.503906 -0.078125 0.484375 -0.117188 0.484375 -0.171875 Z M 0.484375 -0.171875 "/></g></g></g><g fill="#000000" fill-opacity="1"><g transform="translate(51.591395, 16.629716)"><g><path d="M 0.4375 -1.3125 L 0.4375 -3.28125 C 0.4375 -3.75 0.554688 -4.09375 0.796875 -4.3125 C 1.046875 -4.53125 1.367188 -4.640625 1.765625 -4.640625 C 2.160156 -4.640625 2.476562 -4.535156 2.71875 -4.328125 C 2.957031 -4.117188 3.078125 -3.867188 3.078125 -3.578125 C 3.078125 -3.472656 3.054688 -3.40625 3.015625 -3.375 C 2.984375 -3.34375 2.929688 -3.328125 2.859375 -3.328125 C 2.734375 -3.328125 2.664062 -3.378906 2.65625 -3.484375 C 2.644531 -3.546875 2.632812 -3.601562 2.625 -3.65625 C 2.613281 -3.71875 2.585938 -3.785156 2.546875 -3.859375 C 2.515625 -3.941406 2.46875 -4.007812 2.40625 -4.0625 C 2.34375 -4.113281 2.253906 -4.15625 2.140625 -4.1875 C 2.035156 -4.226562 1.910156 -4.25 1.765625 -4.25 C 1.148438 -4.25 0.84375 -3.925781 0.84375 -3.28125 L 0.84375 -1.3125 C 0.84375 -0.664062 1.15625 -0.34375 1.78125 -0.34375 C 1.96875 -0.34375 2.117188 -0.367188 2.234375 -0.421875 C 2.347656 -0.472656 2.429688 -0.546875 2.484375 -0.640625 C 2.546875 -0.734375 2.582031 -0.8125 2.59375 -0.875 C 2.613281 -0.9375 2.632812 -1.019531 2.65625 -1.125 C 2.664062 -1.238281 2.734375 -1.296875 2.859375 -1.296875 C 2.929688 -1.296875 2.984375 -1.273438 3.015625 -1.234375 C 3.054688 -1.203125 3.078125 -1.132812 3.078125 -1.03125 C 3.078125 -0.726562 2.957031 -0.472656 2.71875 -0.265625 C 2.476562 -0.0664062 2.15625 0.03125 1.75 0.03125 C 1.351562 0.03125 1.035156 -0.078125 0.796875 -0.296875 C 0.554688 -0.515625 0.4375 -0.851562 0.4375 -1.3125 Z M 0.4375 -1.3125 "/></g></g></g><g fill="#000000" fill-opacity="1"><g transform="translate(54.907634, 16.629716)"><g><path d="M 0.484375 -0.171875 L 0.484375 -4.484375 C 0.484375 -4.585938 0.550781 -4.640625 0.6875 -4.640625 C 0.832031 -4.640625 0.90625 -4.585938 0.90625 -4.484375 L 0.90625 -0.171875 C 0.90625 -0.117188 0.882812 -0.078125 0.84375 -0.046875 C 0.800781 -0.015625 0.75 0 0.6875 0 C 0.632812 0 0.585938 -0.015625 0.546875 -0.046875 C 0.503906 -0.078125 0.484375 -0.117188 0.484375 -0.171875 Z M 0.484375 -0.171875 "/></g></g></g><g fill="#000000" fill-opacity="1"><g transform="translate(56.289925, 16.629716)"><g><path d="M 0.484375 -0.15625 L 0.484375 -4.484375 C 0.484375 -4.523438 0.5 -4.5625 0.53125 -4.59375 C 0.570312 -4.625 0.617188 -4.640625 0.671875 -4.640625 L 1.796875 -4.640625 C 2.191406 -4.640625 2.507812 -4.53125 2.75 -4.3125 C 3 -4.09375 3.125 -3.75 3.125 -3.28125 L 3.125 -1.359375 C 3.125 -0.890625 3 -0.546875 2.75 -0.328125 C 2.507812 -0.109375 2.191406 0 1.796875 0 L 0.671875 0 C 0.617188 0 0.570312 -0.015625 0.53125 -0.046875 C 0.5 -0.078125 0.484375 -0.113281 0.484375 -0.15625 Z M 0.90625 -0.390625 L 1.796875 -0.390625 C 2.085938 -0.390625 2.3125 -0.46875 2.46875 -0.625 C 2.625 -0.789062 2.703125 -1.035156 2.703125 -1.359375 L 2.703125 -3.28125 C 2.703125 -3.601562 2.625 -3.84375 2.46875 -4 C 2.3125 -4.164062 2.085938 -4.25 1.796875 -4.25 L 0.90625 -4.25 Z M 0.90625 -0.390625 "/></g></g></g><g fill="#000000" fill-opacity="1"><g transform="translate(59.840772, 16.629716)"><g><path d="M 0.140625 -0.171875 C 0.140625 -0.191406 0.140625 -0.207031 0.140625 -0.21875 L 1.46875 -4.53125 C 1.5 -4.625 1.582031 -4.671875 1.71875 -4.671875 C 1.851562 -4.671875 1.9375 -4.625 1.96875 -4.53125 L 3.28125 -0.21875 C 3.28125 -0.21875 3.28125 -0.210938 3.28125 -0.203125 C 3.289062 -0.191406 3.296875 -0.1875 3.296875 -0.1875 C 3.296875 -0.132812 3.265625 -0.0859375 3.203125 -0.046875 C 3.148438 -0.015625 3.09375 0 3.03125 0 C 2.957031 0 2.90625 -0.0351562 2.875 -0.109375 L 2.59375 -1.078125 L 0.828125 -1.078125 L 0.546875 -0.109375 C 0.523438 -0.0351562 0.46875 0 0.375 0 C 0.3125 0 0.253906 -0.015625 0.203125 -0.046875 C 0.160156 -0.078125 0.140625 -0.117188 0.140625 -0.171875 Z M 0.9375 -1.453125 L 2.484375 -1.453125 L 1.71875 -4 Z M 0.9375 -1.453125 "/></g></g></g><g fill="#000000" fill-opacity="1"><g transform="translate(63.264802, 16.629716)"><g><path d="M 0.484375 -0.15625 L 0.484375 -4.484375 C 0.484375 -4.523438 0.5 -4.5625 0.53125 -4.59375 C 0.570312 -4.625 0.617188 -4.640625 0.671875 -4.640625 L 1.796875 -4.640625 C 2.191406 -4.640625 2.507812 -4.53125 2.75 -4.3125 C 3 -4.09375 3.125 -3.75 3.125 -3.28125 L 3.125 -1.359375 C 3.125 -0.890625 3 -0.546875 2.75 -0.328125 C 2.507812 -0.109375 2.191406 0 1.796875 0 L 0.671875 0 C 0.617188 0 0.570312 -0.015625 0.53125 -0.046875 C 0.5 -0.078125 0.484375 -0.113281 0.484375 -0.15625 Z M 0.90625 -0.390625 L 1.796875 -0.390625 C 2.085938 -0.390625 2.3125 -0.46875 2.46875 -0.625 C 2.625 -0.789062 2.703125 -1.035156 2.703125 -1.359375 L 2.703125 -3.28125 C 2.703125 -3.601562 2.625 -3.84375 2.46875 -4 C 2.3125 -4.164062 2.085938 -4.25 1.796875 -4.25 L 0.90625 -4.25 Z M 0.90625 -0.390625 "/></g></g></g><g fill="#000000" fill-opacity="1"><g transform="translate(66.815649, 16.629716)"><g><path d="M 0.484375 -0.171875 L 0.484375 -4.484375 C 0.484375 -4.535156 0.5 -4.570312 0.53125 -4.59375 C 0.570312 -4.625 0.617188 -4.640625 0.671875 -4.640625 L 2.9375 -4.640625 C 3.039062 -4.640625 3.09375 -4.578125 3.09375 -4.453125 C 3.09375 -4.398438 3.078125 -4.351562 3.046875 -4.3125 C 3.015625 -4.269531 2.976562 -4.25 2.9375 -4.25 L 0.90625 -4.25 L 0.90625 -2.5 L 1.890625 -2.5 C 1.941406 -2.5 1.984375 -2.476562 2.015625 -2.4375 C 2.046875 -2.40625 2.0625 -2.363281 2.0625 -2.3125 C 2.0625 -2.195312 2.003906 -2.140625 1.890625 -2.140625 L 0.90625 -2.140625 L 0.90625 -0.390625 L 2.9375 -0.390625 C 2.976562 -0.390625 3.015625 -0.367188 3.046875 -0.328125 C 3.078125 -0.285156 3.09375 -0.238281 3.09375 -0.1875 C 3.09375 -0.0625 3.039062 0 2.9375 0 L 0.671875 0 C 0.617188 0 0.570312 -0.015625 0.53125 -0.046875 C 0.5 -0.078125 0.484375 -0.117188 0.484375 -0.171875 Z M 0.484375 -0.171875 "/></g></g></g></svg>